<svg width="1748" height="1748" viewBox="409 425 931 897" fill="none" xmlns="http://www.w3.org/2000/svg">
	<mask id="path-1-inside-1_350_62" fill="white">
		<path
			d="M1126.93 597.262C1199.45 590.612 1260.02 649.942 1256.18 722.512C1250.69 826.282 1131.25 884.172 1053.61 808.992C980.353 738.062 1025.66 606.552 1126.93 597.262ZM1122.13 604.982C1099.03 607.732 1078.02 618.802 1061.15 634.472L1073.85 642.822C1074.6 642.942 1082.42 640.242 1083.39 639.742C1085.24 638.792 1093.96 626.562 1097.11 623.462C1101.23 619.412 1106.96 615.622 1111.21 611.562L1122.12 604.982H1122.13ZM1139.13 605.982C1126.69 607.752 1113.34 617.022 1104.12 625.462C1101.57 627.792 1089.76 640.082 1088.85 642.282C1088.36 643.472 1089.89 648.272 1090.37 648.752C1092.54 650.922 1113.21 652.572 1117.59 654.012L1127.88 647.732C1131.17 633.732 1132.16 618.872 1139.14 606.002L1139.13 605.982ZM1217.13 636.962C1202.49 620.802 1181.15 611.042 1160.14 605.982L1169.15 612.462C1172.94 616.802 1177.97 620.622 1181.65 624.962C1187.94 632.382 1190.7 641.552 1200.16 645.492L1217.14 636.962H1217.13ZM1134.23 648.822C1136.97 649.112 1138.42 652.672 1140.15 653.462C1147.14 656.652 1170.74 649.552 1179.65 650.992L1181.64 649.982L1186.01 641.652C1176.23 627.042 1163.61 613.292 1146.73 607.042C1138.35 619.122 1137.13 634.752 1134.23 648.812V648.822ZM1069.92 648.172C1069.53 647.502 1057.39 640.192 1056.62 640.252C1038.23 656.892 1027.9 681.472 1025.15 705.972L1032.73 694.062C1036.84 689.552 1040.51 684.452 1044.63 679.962C1048.75 675.472 1069.52 657.382 1070.12 654.462C1070.38 653.192 1070.48 649.122 1069.94 648.182L1069.92 648.172ZM1248.12 694.962C1244.77 675.252 1235.56 656.972 1222.65 641.862L1221.08 641.382L1204.29 650.122L1204.63 655.962L1233.14 678.452L1248.12 694.962ZM1117.07 660.032L1088.56 655.052L1079.62 660.962L1069.14 711.972C1083.69 700.162 1096.2 686.032 1109.6 672.942C1113.96 668.682 1119.91 667.692 1117.06 660.032H1117.07ZM1141.22 661.052L1142.08 665.522C1152.2 675.052 1162.59 684.362 1172.66 693.942C1175.71 696.842 1191.42 713.782 1193.43 713.762C1194.25 713.762 1197.3 712.622 1197.71 712.022C1196.36 704.592 1197.65 696.942 1197.13 689.472C1196.91 686.282 1194.5 663.972 1193.71 662.892C1192.92 661.812 1190.39 662.152 1189.21 661.392C1187.09 660.022 1185.08 656.172 1182.72 656.042L1141.23 661.042L1141.22 661.052ZM1062.92 714.772C1065.06 696.242 1069.34 677.952 1074.12 659.972C1057.68 676.412 1039.56 691.872 1028.23 712.582C1027.73 714.602 1028.51 713.672 1029.52 714.062C1034.33 715.902 1053.3 721.242 1057.12 719.462C1058.78 718.692 1060.35 715.252 1062.92 714.772ZM1208.3 718.832C1210.48 720.112 1246.08 704.982 1246.12 702.472C1233.62 685.032 1215.74 673.092 1199.15 659.972C1201.71 677.392 1204.28 695.112 1203.6 712.522L1208.3 718.832ZM1186.89 724.722C1187.18 724.392 1188.86 719.382 1188.67 718.952C1188.05 717.542 1174.13 704.342 1171.66 701.942C1160.36 690.942 1148.17 680.742 1137.15 669.432C1136.72 669.242 1131.62 670.962 1131.37 671.202C1128.72 673.762 1125.84 716.182 1125.29 722.812C1128.93 722.872 1131.06 727.492 1133.15 728.442C1135.76 729.632 1155.29 729.202 1159.62 728.952C1163.12 728.752 1185.69 726.082 1186.89 724.712V724.722ZM1124.13 669.972L1120.59 670.922L1074.57 715.942L1077.17 724.942C1083.89 724.782 1108.62 730.292 1113.13 727.462C1114.52 726.592 1115.45 722.772 1118.99 722.822L1124.14 669.972H1124.13ZM1250.13 708.972C1249.39 708.172 1236.23 715.502 1234.1 716.432C1227 719.542 1217.24 721.852 1210.86 725.192C1203.02 729.292 1212.89 734.142 1215.66 736.942C1223.97 745.352 1233.36 755.212 1238.15 765.962C1239.86 764.862 1241.15 761.152 1241.9 759.232C1248.01 743.662 1250.39 725.622 1250.13 708.972ZM1024.13 718.972V736.472C1024.13 740.912 1028.4 755.652 1030.11 760.492C1032.07 766.032 1034.35 771.742 1038.63 775.952C1042.1 766.402 1044.8 756.762 1049.25 747.592C1050.43 745.152 1057.74 734.292 1057.78 733.472C1057.8 733.102 1055.48 726.662 1055.17 726.442C1053.71 725.382 1040.62 724.102 1037.29 723.322C1032.74 722.252 1028.54 720.392 1024.13 718.982V718.972ZM1104.63 796.972C1109.26 797.422 1114.43 796.652 1119.13 796.972C1117.02 778.782 1117.2 760.472 1116.91 742.182C1112.76 740.672 1111.93 737.602 1110.52 733.912C1105.64 733.742 1100.47 734.362 1095.64 733.962C1090.81 733.562 1080.35 730.822 1076.55 731.052C1075.67 731.102 1070.95 734.422 1070.64 734.972C1068.68 738.482 1073.55 760.552 1074.81 765.782C1076.2 771.542 1079.7 785.622 1082.34 790.252C1083.44 792.182 1084.22 792.632 1086.29 793.302C1090.1 794.522 1100.62 796.582 1104.62 796.972H1104.63ZM1125.14 795.972C1151.15 779.922 1171.1 758.012 1190.7 734.972L1189.01 731.082C1171 735.872 1152.27 734.992 1133.8 734.922C1133.12 735.082 1131.15 740.632 1128.7 742.022C1126.46 743.282 1123.34 742.772 1123.14 742.962C1121.2 744.762 1124.86 789.552 1125.15 795.962L1125.14 795.972ZM1076.13 790.962C1069.5 773.322 1065.04 754.832 1063.64 735.972C1054.96 748.862 1048.59 763.162 1045.49 778.502C1045.95 782.412 1071.47 789.842 1076.13 790.962ZM1190.28 789.802C1190.42 790.032 1193.45 791.612 1194.18 791.502C1196.63 791.152 1208.74 785.632 1211.81 784.142C1219.69 780.342 1227.14 775.642 1234.12 770.392C1234.42 769.072 1225.29 756.912 1223.65 754.952C1221.46 752.342 1206.23 736.672 1204.49 736.112C1203.72 735.862 1202.93 735.932 1202.15 735.962C1201.08 746.842 1199.55 757.562 1196.85 768.172C1196.03 771.402 1189.71 788.822 1190.29 789.792L1190.28 789.802ZM1133.13 798.972H1152.63C1155.86 798.972 1169.16 797.602 1172.19 796.532C1174.59 795.682 1175.31 793.202 1177.36 791.712C1179.3 790.302 1183.07 789.572 1183.91 788.752C1187.13 785.602 1194.96 747.552 1195.66 740.992C1195.81 739.622 1197.15 738.702 1194.64 738.972C1177.59 762.362 1156.31 781.812 1133.13 798.982V798.972ZM1230.13 781.972C1223.9 784.732 1218.02 788.312 1211.81 791.142C1207.71 793.012 1198.39 795.282 1195.76 797.092C1191.67 799.902 1192.61 805.292 1185.69 808.022C1183.58 808.852 1180.72 808.592 1179.17 809.502C1176.9 810.832 1170.64 820.622 1167.15 822.482L1149.14 834.962C1177.96 831.792 1204.89 816.722 1222.55 793.892C1223.5 792.662 1230.8 782.642 1230.13 781.982V781.972ZM1096.48 823.622C1089.73 816.402 1084.61 807.412 1079.69 798.912L1045.13 786.982C1055.64 804.072 1073.41 818.772 1091.77 826.832C1095.52 828.482 1100.29 830.792 1104.12 830.482C1102.31 827.722 1098.44 825.732 1096.47 823.632L1096.48 823.622ZM1124.12 832.972L1119.2 804.402L1088.14 799.972C1094.66 814.472 1108.31 829.132 1124.12 832.972ZM1126.13 804.962C1124.98 806.122 1129.69 830.582 1131.62 832.972C1133.55 835.362 1138.13 832.752 1140.48 831.812C1153.96 826.422 1166.26 815.792 1175.11 804.462C1174.1 803.032 1173.34 802.912 1171.67 802.922C1167.38 802.962 1161.2 804.792 1156.67 805.002C1146.54 805.472 1136.26 804.572 1126.12 804.952L1126.13 804.962Z" />
	</mask>
	<path
		d="M1126.93 597.262C1199.45 590.612 1260.02 649.942 1256.18 722.512C1250.69 826.282 1131.25 884.172 1053.61 808.992C980.353 738.062 1025.66 606.552 1126.93 597.262ZM1122.13 604.982C1099.03 607.732 1078.02 618.802 1061.15 634.472L1073.85 642.822C1074.6 642.942 1082.42 640.242 1083.39 639.742C1085.24 638.792 1093.96 626.562 1097.11 623.462C1101.23 619.412 1106.96 615.622 1111.21 611.562L1122.12 604.982H1122.13ZM1139.13 605.982C1126.69 607.752 1113.34 617.022 1104.12 625.462C1101.57 627.792 1089.76 640.082 1088.85 642.282C1088.36 643.472 1089.89 648.272 1090.37 648.752C1092.54 650.922 1113.21 652.572 1117.59 654.012L1127.88 647.732C1131.17 633.732 1132.16 618.872 1139.14 606.002L1139.13 605.982ZM1217.13 636.962C1202.49 620.802 1181.15 611.042 1160.14 605.982L1169.15 612.462C1172.94 616.802 1177.97 620.622 1181.65 624.962C1187.94 632.382 1190.7 641.552 1200.16 645.492L1217.14 636.962H1217.13ZM1134.23 648.822C1136.97 649.112 1138.42 652.672 1140.15 653.462C1147.14 656.652 1170.74 649.552 1179.65 650.992L1181.64 649.982L1186.01 641.652C1176.23 627.042 1163.61 613.292 1146.73 607.042C1138.35 619.122 1137.13 634.752 1134.23 648.812V648.822ZM1069.92 648.172C1069.53 647.502 1057.39 640.192 1056.62 640.252C1038.23 656.892 1027.9 681.472 1025.15 705.972L1032.73 694.062C1036.84 689.552 1040.51 684.452 1044.63 679.962C1048.75 675.472 1069.52 657.382 1070.12 654.462C1070.38 653.192 1070.48 649.122 1069.94 648.182L1069.92 648.172ZM1248.12 694.962C1244.77 675.252 1235.56 656.972 1222.65 641.862L1221.08 641.382L1204.29 650.122L1204.63 655.962L1233.14 678.452L1248.12 694.962ZM1117.07 660.032L1088.56 655.052L1079.62 660.962L1069.14 711.972C1083.69 700.162 1096.2 686.032 1109.6 672.942C1113.96 668.682 1119.91 667.692 1117.06 660.032H1117.07ZM1141.22 661.052L1142.08 665.522C1152.2 675.052 1162.59 684.362 1172.66 693.942C1175.71 696.842 1191.42 713.782 1193.43 713.762C1194.25 713.762 1197.3 712.622 1197.71 712.022C1196.36 704.592 1197.65 696.942 1197.13 689.472C1196.91 686.282 1194.5 663.972 1193.71 662.892C1192.92 661.812 1190.39 662.152 1189.21 661.392C1187.09 660.022 1185.08 656.172 1182.72 656.042L1141.23 661.042L1141.22 661.052ZM1062.92 714.772C1065.06 696.242 1069.34 677.952 1074.12 659.972C1057.68 676.412 1039.56 691.872 1028.23 712.582C1027.73 714.602 1028.51 713.672 1029.52 714.062C1034.33 715.902 1053.3 721.242 1057.12 719.462C1058.78 718.692 1060.35 715.252 1062.92 714.772ZM1208.3 718.832C1210.48 720.112 1246.08 704.982 1246.12 702.472C1233.62 685.032 1215.74 673.092 1199.15 659.972C1201.71 677.392 1204.28 695.112 1203.6 712.522L1208.3 718.832ZM1186.89 724.722C1187.18 724.392 1188.86 719.382 1188.67 718.952C1188.05 717.542 1174.13 704.342 1171.66 701.942C1160.36 690.942 1148.17 680.742 1137.15 669.432C1136.72 669.242 1131.62 670.962 1131.37 671.202C1128.72 673.762 1125.84 716.182 1125.29 722.812C1128.93 722.872 1131.06 727.492 1133.15 728.442C1135.76 729.632 1155.29 729.202 1159.62 728.952C1163.12 728.752 1185.69 726.082 1186.89 724.712V724.722ZM1124.13 669.972L1120.59 670.922L1074.57 715.942L1077.17 724.942C1083.89 724.782 1108.62 730.292 1113.13 727.462C1114.52 726.592 1115.45 722.772 1118.99 722.822L1124.14 669.972H1124.13ZM1250.13 708.972C1249.39 708.172 1236.23 715.502 1234.1 716.432C1227 719.542 1217.24 721.852 1210.86 725.192C1203.02 729.292 1212.89 734.142 1215.66 736.942C1223.97 745.352 1233.36 755.212 1238.15 765.962C1239.86 764.862 1241.15 761.152 1241.9 759.232C1248.01 743.662 1250.39 725.622 1250.13 708.972ZM1024.13 718.972V736.472C1024.13 740.912 1028.4 755.652 1030.11 760.492C1032.07 766.032 1034.35 771.742 1038.63 775.952C1042.1 766.402 1044.8 756.762 1049.25 747.592C1050.43 745.152 1057.74 734.292 1057.78 733.472C1057.8 733.102 1055.48 726.662 1055.17 726.442C1053.71 725.382 1040.62 724.102 1037.29 723.322C1032.74 722.252 1028.54 720.392 1024.13 718.982V718.972ZM1104.63 796.972C1109.26 797.422 1114.43 796.652 1119.13 796.972C1117.02 778.782 1117.2 760.472 1116.91 742.182C1112.76 740.672 1111.93 737.602 1110.52 733.912C1105.64 733.742 1100.47 734.362 1095.64 733.962C1090.81 733.562 1080.35 730.822 1076.55 731.052C1075.67 731.102 1070.95 734.422 1070.64 734.972C1068.68 738.482 1073.55 760.552 1074.81 765.782C1076.2 771.542 1079.7 785.622 1082.34 790.252C1083.44 792.182 1084.22 792.632 1086.29 793.302C1090.1 794.522 1100.62 796.582 1104.62 796.972H1104.63ZM1125.14 795.972C1151.15 779.922 1171.1 758.012 1190.7 734.972L1189.01 731.082C1171 735.872 1152.27 734.992 1133.8 734.922C1133.12 735.082 1131.15 740.632 1128.7 742.022C1126.46 743.282 1123.34 742.772 1123.14 742.962C1121.2 744.762 1124.86 789.552 1125.15 795.962L1125.14 795.972ZM1076.13 790.962C1069.5 773.322 1065.04 754.832 1063.64 735.972C1054.96 748.862 1048.59 763.162 1045.49 778.502C1045.95 782.412 1071.47 789.842 1076.13 790.962ZM1190.28 789.802C1190.42 790.032 1193.45 791.612 1194.18 791.502C1196.63 791.152 1208.74 785.632 1211.81 784.142C1219.69 780.342 1227.14 775.642 1234.12 770.392C1234.42 769.072 1225.29 756.912 1223.65 754.952C1221.46 752.342 1206.23 736.672 1204.49 736.112C1203.72 735.862 1202.93 735.932 1202.15 735.962C1201.08 746.842 1199.55 757.562 1196.85 768.172C1196.03 771.402 1189.71 788.822 1190.29 789.792L1190.28 789.802ZM1133.13 798.972H1152.63C1155.86 798.972 1169.16 797.602 1172.19 796.532C1174.59 795.682 1175.31 793.202 1177.36 791.712C1179.3 790.302 1183.07 789.572 1183.91 788.752C1187.13 785.602 1194.96 747.552 1195.66 740.992C1195.81 739.622 1197.15 738.702 1194.64 738.972C1177.59 762.362 1156.31 781.812 1133.13 798.982V798.972ZM1230.13 781.972C1223.9 784.732 1218.02 788.312 1211.81 791.142C1207.71 793.012 1198.39 795.282 1195.76 797.092C1191.67 799.902 1192.61 805.292 1185.69 808.022C1183.58 808.852 1180.72 808.592 1179.17 809.502C1176.9 810.832 1170.64 820.622 1167.15 822.482L1149.14 834.962C1177.96 831.792 1204.89 816.722 1222.55 793.892C1223.5 792.662 1230.8 782.642 1230.13 781.982V781.972ZM1096.48 823.622C1089.73 816.402 1084.61 807.412 1079.69 798.912L1045.13 786.982C1055.64 804.072 1073.41 818.772 1091.77 826.832C1095.52 828.482 1100.29 830.792 1104.12 830.482C1102.31 827.722 1098.44 825.732 1096.47 823.632L1096.48 823.622ZM1124.12 832.972L1119.2 804.402L1088.14 799.972C1094.66 814.472 1108.31 829.132 1124.12 832.972ZM1126.13 804.962C1124.98 806.122 1129.69 830.582 1131.62 832.972C1133.55 835.362 1138.13 832.752 1140.48 831.812C1153.96 826.422 1166.26 815.792 1175.11 804.462C1174.1 803.032 1173.34 802.912 1171.67 802.922C1167.38 802.962 1161.2 804.792 1156.67 805.002C1146.54 805.472 1136.26 804.572 1126.12 804.952L1126.13 804.962Z"
		fill="#FEF3C7" stroke="#FEF3C7" stroke-width="2" mask="url(#path-1-inside-1_350_62)" />
	<g filter="url(#filter0_d_350_62)">
		<path
			d="M1268.34 455.771L1295.81 473.851C1316.22 455.461 1337.5 488.711 1311.06 497.591C1312.03 506.361 1309.98 517.041 1311.06 525.541C1311.65 530.181 1317.39 529.291 1320.33 534.271C1329.48 549.791 1308.96 565.411 1296.47 551.091L1266.33 569.181C1269.94 586.981 1245.36 595.681 1237.25 580.361C1235.14 576.381 1236.7 570.161 1235.15 568.471L1207.12 551.491C1186.41 568.721 1167.43 535.131 1193.19 527.411L1192.97 497.141C1167.35 486.661 1187.63 455.411 1209.48 472.871L1238.05 454.851C1232.95 428.101 1272.81 428.361 1268.34 455.781V455.771ZM1248.84 442.181C1240.74 444.601 1243.34 460.611 1254.38 458.791C1266.68 456.771 1262.49 438.101 1248.84 442.181ZM1249.02 494.861L1248.98 465.631L1241.49 460.081C1237.93 462.591 1211.53 476.941 1211.12 478.681C1210.86 479.791 1210.88 484.981 1211.34 485.781C1212.73 488.191 1233.6 497.781 1236.76 501.881H1238.04C1239.65 498.141 1244.97 495.531 1249.01 494.871L1249.02 494.861ZM1255.29 494.811L1267.18 502.571L1292.12 486.461C1294 484.191 1293.81 479.141 1291.1 477.501C1285.49 475.891 1267.14 460.231 1262.88 461.141L1255.09 465.641L1255.29 494.811ZM1194.86 474.161C1186.38 475.261 1185.18 488.201 1194.11 490.511C1207.72 494.041 1208.64 472.371 1194.86 474.161ZM1301.41 488.691C1307.46 494.761 1321.44 489.001 1316.01 479.581C1310.15 469.411 1292.62 479.871 1301.41 488.691ZM1233.97 507.131C1225.98 504.331 1217.49 495.341 1210.07 492.471C1206.56 491.111 1203.86 496.591 1200.09 497.641L1199.33 526.791L1207.63 532.811C1212.75 527.651 1229.25 521.121 1233.13 516.471C1234.97 514.271 1234.13 509.981 1233.97 507.141V507.131ZM1305.02 497.071L1296.15 492.341L1269.24 508.121L1269.56 516.971C1270.31 518.221 1292.09 531.661 1294.19 532.481C1297.22 533.651 1301.72 528.341 1305.16 527.311L1305.01 497.091L1305.02 497.071ZM1247.84 502.181C1235.63 505.001 1238.75 526.811 1255.16 522.491C1268.22 519.061 1263.13 498.651 1247.84 502.181ZM1237.01 522.101L1234.16 522.491L1210.3 538.131L1211.14 545.471C1216.12 547.651 1236.02 563.321 1239.57 563.011C1240.62 562.921 1246.64 559.361 1246.98 558.321L1247.86 530.421C1244.2 527.551 1238.43 527.471 1237.01 522.111V522.101ZM1292.96 538.131L1266.65 521.961C1263.88 526.671 1258.97 528.761 1254.06 530.581L1254.23 559.861C1258.09 560.021 1260.04 562.351 1262.61 564.811L1293.16 545.431C1293.89 544.591 1293.28 538.681 1292.95 538.131H1292.96ZM1201.88 547.711C1209.8 540.391 1194.6 526.651 1188.26 538.601C1183.71 547.181 1196.38 552.791 1201.88 547.711ZM1314.84 537.251C1309.34 530.601 1296.26 536.281 1300.65 545.961C1305.14 555.841 1322.24 546.211 1314.84 537.251ZM1247.85 566.181C1239.2 568.181 1241.17 581.641 1250.66 582.041C1263.23 582.581 1262.06 562.891 1247.85 566.181Z"
			fill="#00FFE0" />
	</g>
	<path
		d="M589.349 439.812C590.216 439.263 591.313 439.178 592.182 439.493C593.038 439.804 593.634 440.479 593.634 441.472V458.472H607.634V441.472C607.634 440.983 607.915 440.58 608.47 440.272C609.032 439.961 609.818 439.789 610.634 439.789C611.449 439.789 612.235 439.961 612.797 440.272C613.352 440.58 613.634 440.983 613.634 441.472V458.506L614.166 458.471C622.207 457.938 628.769 460.304 632.966 464.756C637.159 469.203 639.059 475.804 637.641 483.885L637.538 484.472H655.523C655.578 484.511 655.655 484.574 655.752 484.66C655.953 484.84 656.205 485.092 656.458 485.37C656.711 485.648 656.956 485.942 657.143 486.203C657.346 486.487 657.431 486.665 657.444 486.727L657.445 486.728C657.6 487.438 657.5 487.983 657.242 488.419C656.978 488.866 656.516 489.252 655.855 489.572C654.522 490.218 652.532 490.524 650.318 490.614C645.912 490.795 640.895 490.117 639.174 489.905L638.98 489.882L638.822 489.995C638.64 490.126 638.502 490.313 638.396 490.501C638.288 490.694 638.193 490.922 638.111 491.17C637.947 491.667 637.815 492.292 637.711 492.988C637.503 494.384 637.404 496.127 637.425 497.84C637.446 499.55 637.587 501.256 637.87 502.572C638.011 503.227 638.192 503.814 638.428 504.262C638.652 504.688 638.992 505.112 639.505 505.204L639.59 505.219L639.675 505.205C642.655 504.713 648.334 503.876 652.39 504.344C653.398 504.46 654.283 504.655 654.989 504.943C655.698 505.233 656.192 505.601 656.474 506.041C656.991 506.85 656.947 508.199 655.372 510.462H638.634V525.462H655.569C655.579 525.468 655.593 525.474 655.609 525.485C655.681 525.533 655.78 525.613 655.9 525.726C656.139 525.95 656.425 526.268 656.7 526.625C656.975 526.981 657.23 527.363 657.413 527.71C657.606 528.076 657.684 528.336 657.684 528.472V528.474C657.687 529.402 656.969 530.158 655.474 530.722C654.004 531.276 651.975 531.562 649.807 531.647C647.647 531.733 645.387 531.618 643.479 531.393C641.55 531.165 640.046 530.831 639.355 530.509L638.561 530.137L638.646 531.011C639.393 538.616 637.086 545.158 632.714 549.58C628.343 554 621.868 556.344 614.189 555.475L613.28 555.372L613.685 556.192C614.301 557.442 614.574 558.485 614.665 559.823L614.693 560.416C614.744 562.198 614.989 566.512 614.555 570.251C614.337 572.128 613.953 573.795 613.328 574.912C613.019 575.466 612.667 575.852 612.278 576.075C611.907 576.288 611.465 576.372 610.912 576.266C610.805 576.227 610.611 576.119 610.349 575.931C610.083 575.741 609.789 575.501 609.514 575.255C609.238 575.009 608.99 574.765 608.814 574.57C608.73 574.477 608.671 574.402 608.634 574.35V555.451H594.634V573.451C594.634 574.243 594.283 574.831 593.735 575.25C593.174 575.68 592.399 575.934 591.596 575.995C590.791 576.056 590.015 575.918 589.46 575.627C588.915 575.341 588.634 574.942 588.634 574.451V555.451H574.634V574.451C574.634 574.94 574.352 575.344 573.797 575.651C573.235 575.963 572.449 576.134 571.634 576.134C570.818 576.134 570.032 575.963 569.47 575.651C568.915 575.344 568.634 574.94 568.634 574.451V555.354L568.045 555.46C553.514 558.079 541.3 545.092 545.611 531.099L545.811 530.451H527.943L526.109 526.746C526.142 526.582 526.229 526.377 526.388 526.142C526.579 525.858 526.845 525.568 527.144 525.306C527.441 525.044 527.758 524.822 528.042 524.668C528.344 524.504 528.547 524.451 528.634 524.451H544.634V510.451H526.409C526.28 510.192 526.195 509.825 526.177 509.365C526.154 508.79 526.235 508.137 526.396 507.519C526.557 506.898 526.79 506.343 527.048 505.957C527.327 505.54 527.542 505.451 527.634 505.451H544.634V490.451H529.634C529.363 490.451 528.968 490.308 528.514 489.988C528.072 489.677 527.626 489.236 527.26 488.731C526.509 487.696 526.226 486.599 526.63 485.845L527.858 484.451H544.691L544.63 483.897C543.793 476.258 545.784 469.615 549.895 465.029C554 460.449 560.267 457.87 568.097 458.44L569.019 458.508L568.57 457.699C568.402 457.395 568.228 456.878 568.069 456.169C567.913 455.47 567.779 454.619 567.677 453.67C567.473 451.772 567.398 449.509 567.519 447.339C567.639 445.162 567.954 443.114 568.508 441.629C569.078 440.099 569.804 439.398 570.621 439.401H570.624C570.757 439.402 571.015 439.479 571.381 439.672C571.727 439.855 572.11 440.11 572.467 440.385C572.824 440.66 573.143 440.946 573.368 441.185C573.481 441.305 573.561 441.404 573.609 441.476C573.621 441.492 573.628 441.507 573.634 441.517V458.472H588.717L588.627 457.895C588.383 456.325 588.144 452.052 588.202 447.992C588.231 445.965 588.335 444.011 588.546 442.488C588.651 441.725 588.782 441.087 588.937 440.608C589.097 440.11 589.254 439.884 589.349 439.812ZM619.713 464.445C610.85 463.38 600.889 463.74 590.914 464.216C580.921 464.693 570.915 465.286 561.896 464.703L561.888 464.82L561.874 464.701H561.863L561.85 465.101L561.759 464.715C555.564 466.178 551.597 471.691 550.712 477.812L550.637 478.406C549.182 491.368 549.403 521.343 550.655 534.489C551.332 541.593 553.358 545.486 556.938 547.642C558.706 548.705 560.815 549.321 563.242 549.722C565.062 550.022 567.08 550.203 569.29 550.355L571.563 550.501C579.604 550.988 587.645 550.653 595.657 550.238C603.678 549.823 611.666 549.327 619.644 549.481L619.692 549.482L619.74 549.474C623.752 548.766 626.823 547.011 628.976 544.42C631.123 541.834 632.324 538.455 632.671 534.546H632.672C633.854 521.173 634.105 491.538 632.63 478.406C631.852 471.485 627.159 465.508 620.053 464.49L619.713 464.445Z"
		fill="#FEF3C7" stroke="#FEF3C7" />
	<g filter="url(#filter1_d_350_62)">
		<path
			d="M693.11 710.971L691.66 710.991C686.38 715.651 684.07 721.421 675.86 719.741C664.84 717.481 663.66 698.971 660 690.601C659.39 689.191 657.58 684.591 655.7 685.011C649.12 686.481 640.31 724.021 627.85 730.181C609.71 739.151 605.64 708.701 599.32 699.271C590.22 685.691 583.43 712.931 580.3 719.641C576.78 727.201 571.4 740.021 561.09 732.501C551.87 725.781 551.2 701.971 548.47 691.121C546.98 685.181 544.34 674.571 539.25 684.581C535.02 692.911 533.22 715.341 522.36 716.781C510.37 718.361 513.74 697.651 506.1 694.411C502.54 692.901 491.22 706.711 486.06 699.531C481.02 692.531 489.19 693.581 492.39 692.721C496.41 691.641 498.04 686.621 504.62 686.491C517.63 686.241 517.06 699.341 521.63 707.941C526.62 707.881 529.41 669.841 544.38 671.151C557.04 672.251 558.46 704.811 561 714.591C561.78 717.581 563.63 727.921 568.15 725.501C573.84 722.461 577.2 694.851 588.43 688.761C607.09 678.631 610.43 710.691 617.3 720.291C622.66 727.791 626.7 722.431 630.32 716.651C636.18 707.311 642.58 683.531 650.79 678.131C666.45 667.841 669.62 699.101 673.35 707.231C678.69 718.881 682.18 706.981 686.62 703.951C694.05 698.881 702.29 707.141 705.79 713.451C703.01 721.341 694.98 717.081 693.11 710.961V710.971Z"
			fill="#C026D3" />
	</g>
	<g filter="url(#filter2_d_350_62)">
		<path
			d="M564.13 922.971H579.63C584.36 922.971 591.86 915.361 593.62 910.961C600.69 893.351 588.92 881.971 573.03 877.561C570.66 856.531 556.1 838.961 533.34 846.681C525.62 849.301 520.53 854.261 517.25 861.591C516.14 864.061 515.17 870.441 513.89 871.731C511.96 873.661 500.88 874.671 496.77 877.111C483.68 884.871 482.87 905.701 495.08 914.511C497.16 916.011 508.79 919.531 503.17 923.531C498.93 926.551 488.15 917.371 485.68 913.901C472.03 894.721 485.38 868.211 508.95 867.811C514.86 837.351 555.83 827.721 572.28 856.301C574.66 860.431 577.57 871.731 579.04 873.541C580.26 875.041 587.87 877.381 590.45 879.131C609.04 891.731 602.74 925.841 579.53 928.881C576.27 929.311 564.97 929.901 563.56 926.941L564.12 922.961L564.13 922.971Z"
			fill="#00FFE0" />
		<path
			d="M551.903 940.742C549.113 943.572 530.353 942.522 527.573 940.032C524.793 937.542 526.883 933.942 525.703 930.902C524.543 929.262 517.473 930.422 515.653 926.952C512.893 921.712 515.913 915.942 514.983 912.692C514.423 910.752 510.843 909.242 510.293 906.232C509.133 899.912 515.273 899.922 517.563 896.892C519.853 893.862 521.243 887.322 524.143 883.472C541.703 860.112 574.243 882.302 562.913 909.242C560.973 913.862 555.043 918.552 554.353 921.682C553.503 925.522 554.503 938.112 551.913 940.742H551.903ZM532.343 934.752C533.533 936.412 546.573 936.652 547.703 935.032C548.773 929.322 547.273 923.502 549.643 917.972C551.723 913.092 557.703 909.652 558.903 903.232C563.133 880.652 537.513 870.312 526.323 890.652C523.383 895.982 523.633 901.342 517.203 904.602C516.553 906.782 520.573 909.322 520.973 912.742C521.343 915.942 519.233 919.442 520.293 922.842C528.713 924.262 531.863 925.552 532.363 934.762L532.343 934.752Z"
			fill="#00FFE0" />
	</g>
	<path
		d="M1088.25 885.695L1091.2 887.269L1091.55 890.306C1091.4 890.67 1091.11 890.949 1090.66 891.159C1090.16 891.391 1089.51 891.523 1088.79 891.583C1087.33 891.704 1085.72 891.529 1084.68 891.462H1084.68C1079.92 891.168 1070.88 890.224 1061.96 889.045C1053.58 887.938 1045.36 886.629 1040.89 885.462L1040.04 885.23C1038.93 884.909 1038.09 884.503 1037.51 884.06C1036.93 883.617 1036.65 883.16 1036.57 882.729C1036.43 881.909 1037.01 880.794 1038.98 879.648L1088.25 885.695Z"
		fill="#FEF3C7" stroke="#FEF3C7" />
	<g filter="url(#filter3_d_350_62)">
		<path
			d="M846.211 763.881L855.651 767.741C858.631 767.481 860.071 754.171 870.111 765.491C873.991 769.861 880.901 782.621 878.981 788.311C878.261 790.441 869.731 793.421 869.301 794.131C868.531 795.381 867.821 804.841 869.061 806.551C873.921 813.211 882.261 806.051 875.901 824.231C872.321 834.451 868.471 844.131 857.641 833.931C844.751 838.851 858.001 847.321 854.041 853.351C852.171 856.201 836.251 861.541 832.691 860.991C826.201 859.981 830.681 848.691 821.681 849.941C817.061 850.581 816.971 860.281 810.141 858.551C807.611 857.911 794.591 850.051 793.621 847.951C791.181 842.691 801.601 837.081 794.681 831.871C792.041 829.881 786.091 834.621 782.831 833.821C778.291 832.711 773.811 809.981 775.311 805.631C776.221 802.941 784.041 802.191 784.951 800.771C785.311 800.201 787.261 788.701 787.241 787.441C787.131 781.181 779.351 780.461 781.381 772.721C782.411 768.771 795.901 756.131 800.121 755.331C803.931 754.611 805.741 760.691 807.781 763.051C808.521 763.161 815.781 760.441 816.561 759.881C820.821 756.821 813.881 747.601 824.741 746.061C829.741 745.351 847.451 745.451 848.141 752.481C848.381 754.931 845.191 762.441 846.221 763.881H846.211ZM842.061 754.051C836.471 752.401 830.641 751.371 824.771 752.111L823.271 753.611C822.511 757.401 824.691 761.931 821.091 764.431C819.881 765.271 808.071 769.201 806.691 769.011C803.201 768.521 800.401 762.021 799.641 761.991L787.251 774.681C786.381 777.921 793.111 780.051 793.161 785.441C793.171 787.151 790.211 802.941 789.601 803.931C787.771 806.901 780.371 807.061 780.061 808.601L785.711 827.931C789.281 827.041 793.031 823.421 796.711 825.891C798.431 827.051 803.001 834.451 803.131 836.551C803.331 839.771 799.511 842.901 800.231 845.311C800.741 847.021 811.641 852.921 813.061 851.901C815.241 841.831 822.981 843.571 830.911 846.211L833.151 854.981L849.141 849.961C842.241 838.421 846.651 833.631 856.801 827.181L866.121 831.971L873.091 815.061C860.841 811.451 862.251 803.051 863.811 792.211L873.721 785.981C875.631 782.931 865.881 771.601 865.131 767.981C863.601 766.921 859.841 772.381 857.881 773.231C852.521 775.561 846.621 769.081 841.311 767.821L842.081 754.061L842.061 754.051Z"
			fill="#00FFE0" />
		<path
			d="M844.98 923.822C842.78 925.222 802.58 917.292 796.35 916.262C791.29 915.432 762.78 912.142 761.12 910.492C758.83 908.222 760.56 904.222 763.56 904.062L842.56 917.042C846.17 916.852 846.94 922.572 844.98 923.822Z"
			fill="#00FFE0" />
		<path
			d="M758.783 928.112C760.283 927.602 761.973 927.972 763.503 928.092C776.013 929.072 805.403 933.952 817.363 937.242C821.903 938.492 825.103 939.902 821.143 944.492L758.813 934.792C756.293 933.942 756.363 928.922 758.783 928.102V928.112Z"
			fill="#00FFE0" />
		<path
			d="M753.26 955.851C752.62 951.521 752.94 949.761 757.58 949.941C770.15 950.441 786.91 956.431 799.7 957.891C800.5 959.651 800.73 963.131 798.48 963.861L753.26 955.841V955.851Z"
			fill="#00FFE0" />
	</g>
	<path
		d="M982.867 873.457C983.292 872.754 984.258 872.33 986.561 872.43V872.431C992.354 872.689 998.547 873.831 1004.81 875.001C1011.03 876.163 1017.32 877.351 1023.28 877.694C1024.33 878.087 1024.96 878.651 1025.3 879.238C1025.63 879.835 1025.68 880.499 1025.49 881.128C1025.11 882.385 1023.74 883.535 1021.72 883.51L982.704 877.394C982.574 876.489 982.499 875.725 982.509 875.083C982.52 874.354 982.64 873.832 982.867 873.457Z"
		fill="#FEF3C7" stroke="#FEF3C7" />
	<path
		d="M941.271 861.309C941.637 862.203 941.377 863.109 940.574 864.108C939.727 865.163 938.353 866.215 936.789 867.266C936.012 867.788 935.199 868.302 934.396 868.812C933.594 869.32 932.799 869.825 932.068 870.321C930.632 871.297 929.349 872.3 928.749 873.317L928.707 873.39L928.69 873.471C928.655 873.645 928.702 873.805 928.731 873.89C928.767 873.992 928.819 874.098 928.876 874.202C928.991 874.411 929.158 874.665 929.357 874.949C929.759 875.52 930.332 876.265 930.986 877.112C932.303 878.815 933.967 880.955 935.353 883.05C936.045 884.097 936.662 885.124 937.127 886.072C937.595 887.027 937.896 887.871 937.982 888.56C938.069 889.245 937.935 889.695 937.644 889.981C937.338 890.281 936.746 890.515 935.658 890.501C935.651 890.498 935.6 890.483 935.49 890.422C935.356 890.346 935.182 890.228 934.97 890.062C934.546 889.733 934.011 889.254 933.398 888.662C932.175 887.48 930.674 885.883 929.196 884.23C927.719 882.58 926.27 880.88 925.148 879.496C924.587 878.804 924.111 878.193 923.755 877.708C923.386 877.206 923.179 876.882 923.119 876.743C922.176 874.545 922.333 872.713 923.15 871.105C923.982 869.469 925.519 868.025 927.412 866.687C929.302 865.35 931.493 864.154 933.592 862.985C935.533 861.905 937.409 860.841 938.829 859.727L941.271 861.309Z"
		fill="#FEF3C7" stroke="#FEF3C7" />
	<path
		d="M958.824 860.514C959.436 860.409 959.883 860.571 960.238 860.886C960.615 861.219 960.916 861.749 961.143 862.412C961.596 863.737 961.689 865.399 961.66 866.406C961.606 868.226 961.067 873.145 960.4 878.01C960.068 880.436 959.704 882.839 959.356 884.822C959.005 886.822 958.677 888.351 958.42 889.061L958.419 889.063C958.164 889.776 957.812 890.342 957.355 890.747C956.934 891.121 956.403 891.374 955.727 891.472L953.461 890.203L952.712 887.658C952.971 887.066 953.184 886.258 953.369 885.322C953.576 884.275 953.757 883.026 953.928 881.659C954.098 880.291 954.259 878.795 954.425 877.255C954.591 875.713 954.763 874.126 954.955 872.566C955.34 869.44 955.805 866.457 956.466 864.212C956.797 863.088 957.168 862.179 957.584 861.537C958.003 860.89 958.421 860.582 958.824 860.514Z"
		fill="#FEF3C7" stroke="#FEF3C7" />
	<g filter="url(#filter4_d_350_62)">
		<path
			d="M1037.79 1001.1C1040.97 1000.05 1074.58 1008.24 1081.11 1009.49C1084.92 1010.22 1102.36 1011.96 1103.69 1013.92L1103.98 1017.27L1100.87 1019.72L1039.91 1007.7C1036.22 1007.68 1034.35 1002.24 1037.79 1001.11V1001.1Z"
			fill="#C026D3" />
	</g>
	<g filter="url(#filter5_d_350_62)">
		<path
			d="M1155.91 1023.2C1157.88 1024.96 1156.36 1029.06 1152.78 1028.92C1141.36 1028.49 1126.62 1022.83 1114.88 1021.71C1112.22 1020.88 1111.87 1018.49 1112.12 1015.97C1113.66 1014.37 1154.25 1021.72 1155.9 1023.2H1155.91Z"
			fill="#C026D3" />
	</g>
	<g filter="url(#filter6_d_350_62)">
		<path
			d="M923.862 972.101C926.592 971.691 928.932 974.181 927.672 976.951C926.302 979.961 915.502 983.951 915.132 985.491L925.022 996.671C923.712 1009.06 907.382 987.851 907.532 984.461C907.632 982.161 921.732 972.421 923.862 972.101Z"
			fill="#C026D3" />
	</g>
	<g filter="url(#filter7_d_350_62)">
		<path
			d="M990.912 992.202C993.042 994.102 991.142 998.012 987.692 998.022C984.872 998.022 964.502 993.842 963.112 992.502C960.822 990.292 961.862 986.882 965.482 987.022C968.102 987.132 989.942 991.332 990.912 992.202Z"
			fill="#C026D3" />
	</g>
	<g filter="url(#filter8_d_350_62)">
		<path
			d="M1026.89 999.211C1029.54 1001.69 1027.15 1004.94 1023.78 1004.93C1017.62 1004.91 1008.47 1000.66 1001.82 1000.79C999.172 999.391 998.232 995.811 1001.15 994.451C1002.76 993.701 1025.46 997.891 1026.88 999.221L1026.89 999.211Z"
			fill="#C026D3" />
	</g>
	<g filter="url(#filter9_d_350_62)">
		<path
			d="M943.733 977.051C948.833 975.281 948.334 981.081 948.124 984.461C947.944 987.341 945.754 1002.89 944.664 1003.99C943.164 1005.58 940.013 1005.57 939.273 1003.32C939.733 999.421 940.823 978.071 943.733 977.061V977.051Z"
			fill="#C026D3" />
	</g>
	<g filter="url(#filter10_d_350_62)">
		<path
			d="M1001.39 957.191C1002.36 956.201 1003.76 956.541 1004.95 956.621C1026.48 958.061 1049.54 965.861 1071.39 967.201L1074.65 968.941L1075.05 972.361C1074.37 974.431 1071.4 974.071 1069.67 973.981C1054.44 973.191 1021.13 967.381 1006.09 963.511C1003.02 962.721 997.591 961.081 1001.39 957.191Z"
			fill="#00FFE0" />
		<path
			d="M1158.98 944.821C1157.99 945.451 1155.16 944.951 1153.77 944.831C1142.68 943.941 1121.69 941.101 1111.07 938.531C1105.13 937.091 1105.83 930.781 1110.49 931.021L1157.4 938.201C1160.42 938.491 1160.6 943.781 1158.98 944.811V944.821Z"
			fill="#00FFE0" />
		<path
			d="M935.98 917.822L930.17 918.012C928.79 922.702 929.66 927.702 929.07 932.412C928.85 934.212 927.46 935.682 927.17 937.532C925.91 945.692 929.43 942.561 931.93 944.141C933.43 945.091 932.54 949.311 930.45 949.821C919.07 951.571 919.69 940.922 922.13 932.982C913.93 933.772 914.41 924.172 922.11 926.982C924.06 920.702 922.35 910.511 931.6 910.901C936.26 911.101 938.48 913.572 935.97 917.822H935.98Z"
			fill="#00FFE0" />
		<path
			d="M946.383 952.732L946.273 947.102C947.673 946.692 949.153 946.902 950.583 946.992C957.813 947.402 978.104 950.652 984.804 952.802C988.594 954.012 991.643 957.122 986.833 959.262C982.833 961.032 952.984 953.442 946.374 952.742L946.383 952.732Z"
			fill="#00FFE0" />
		<path
			d="M1073.79 948.082C1075.36 947.572 1103.99 952.272 1106.37 953.232C1109.47 954.492 1110.31 957.952 1107.11 959.502C1104.12 960.952 1080.28 954.722 1074.89 954.712C1071.94 954.092 1070.78 949.062 1073.79 948.082Z"
			fill="#00FFE0" />
		<path
			d="M1002.75 914.051C1004.71 913.411 1005.78 914.211 1007.16 915.441C1009.06 917.141 1019.5 935.731 1021.29 939.291C1021.94 940.581 1023.76 943.371 1023.76 944.461C1023.76 947.971 1020.36 949.261 1017.67 945.911C1015.12 942.741 1003.24 923.181 1001.9 919.681C1001.23 917.921 1000.13 914.891 1002.74 914.041L1002.75 914.051Z"
			fill="#00FFE0" />
		<path
			d="M1094.78 972.122C1097.6 971.192 1124.65 975.512 1126.23 977.382C1126.97 978.252 1127.39 979.112 1127.03 980.282C1126.16 982.222 1124.78 982.962 1122.69 983.022C1119.39 983.112 1100.57 979.782 1096.9 978.712C1092.85 977.542 1091.32 973.272 1094.79 972.122H1094.78Z"
			fill="#00FFE0" />
		<path
			d="M950.36 921.751C948.29 920.241 949 915.261 952.55 915.061C954.51 914.951 977.57 919.141 979.62 919.971C982.81 921.271 982.94 922.651 981.2 925.561C980.52 926.391 979.79 926.821 978.7 926.881C976.74 926.981 951.52 922.611 950.36 921.761V921.751Z"
			fill="#00FFE0" />
		<path
			d="M1099 934.831C1097.7 935.551 1096.41 935.761 1094.93 935.711C1090.24 935.561 1074.58 932.971 1069.87 931.731C1065.77 930.661 1065.41 928.741 1067.29 925.121C1068.75 924.191 1093.56 927.901 1096.64 928.961C1099.72 930.021 1099.47 931.741 1099 934.831Z"
			fill="#00FFE0" />
		<path
			d="M972.392 939.722L971.582 935.982C972.592 934.462 973.782 933.962 975.582 933.922C977.612 933.872 994.222 936.532 996.422 937.182C1000.26 938.332 1000.03 943.092 995.682 943.492C993.592 943.682 973.242 940.532 972.392 939.722Z"
			fill="#00FFE0" />
		<path
			d="M1044.83 943.131C1046.85 942.671 1060.74 945.201 1061.65 946.961C1065.96 955.311 1045.05 950.931 1043.13 949.491C1040.86 947.791 1042.46 943.681 1044.83 943.141V943.131Z"
			fill="#00FFE0" />
		<path
			d="M1041.78 921.121C1044.42 920.241 1053.41 921.461 1055.08 923.581C1058.14 930.721 1047.3 928.871 1043.08 927.521C1039.72 926.441 1038.7 922.151 1041.78 921.121Z"
			fill="#00FFE0" />
	</g>
	<g filter="url(#filter11_d_350_62)">
		<path
			d="M1324.14 605.981H1328.13L1329.5 606.002L1329.01 609.341C1304.94 764.291 1288.49 920.761 1261.97 1075.3C1259.68 1088.64 1259.51 1108.32 1244.14 1112.98C1251.12 1120.7 1253.21 1129.05 1250.86 1139.19C1248.41 1149.74 1243.33 1151.77 1235.46 1157.79C1168.57 1208.89 1097.85 1255.32 1030.45 1305.78C1016.08 1313.79 998.531 1313.31 982.931 1309.69C951.341 1302.36 917.371 1289.13 885.911 1279.71C741.551 1236.48 593.071 1196.83 450.381 1149.24C435.581 1144.3 422.051 1142.48 419.411 1124.21C418.111 1115.25 419.661 1109.68 427.451 1104.77L678.911 1003.23L699.151 998.961C695.841 994.871 694.431 989.871 694.231 984.631L749 650.981H750.151H754.141H755C739.33 763.101 719.571 870.761 701.151 982.501C699.931 1000.27 719.121 1000.82 731.951 1003.67C874.921 1035.44 1018.96 1063.29 1162.33 1093.29C1183.98 1097.82 1210.77 1106.09 1231.89 1108.72C1249.94 1110.97 1251.43 1095.57 1253.83 1082.17C1268.54 1000.06 1279.09 914.151 1291 831.341C1301.98 754.931 1311.61 682.29 1323.15 605.98L1324.15 606.001L1324.14 605.981ZM1241.13 1121.95C1241.45 1120.56 1240.92 1120.3 1240.16 1119.43C1236.51 1115.22 1204.7 1109.17 1197.14 1107.45C1055.32 1075.11 911.731 1046.41 769.161 1017.43C739.971 1011.5 707.591 1000.41 678.881 1010.22C597.861 1037.91 518.091 1078.6 437.161 1107.5L428.151 1113.47C428.131 1114.37 443.101 1118.83 445.131 1119.47C486.441 1132.42 528.591 1143.2 570.121 1155.48C712.411 1197.53 854.501 1241.01 997.581 1280.01C1007.22 1280.54 1015.9 1278.6 1024.04 1273.39C1093.94 1221.54 1167.64 1174.53 1237.78 1123.11C1238.72 1122.42 1239.96 1122.07 1241.11 1121.96L1241.13 1121.95ZM1244.12 1126.97C1220.14 1143.04 1196.44 1159.56 1172.82 1176.15C1121.14 1212.45 1070.96 1251.67 1017.14 1284.47C997.341 1291.08 977.191 1282.85 958.141 1277.46C780.561 1227.28 604.461 1171.57 427.151 1120.44C425.931 1119.3 426.031 1120.34 426.111 1121.47C426.331 1124.43 429.381 1133.17 431.601 1134.99C434.831 1137.65 452.151 1142.52 457.371 1144.22C592.361 1188.36 731.601 1226.2 867.901 1266.69C900.061 1276.24 931.901 1287.18 964.141 1296.45C988.361 1303.42 1006.99 1311.54 1030.66 1296.98C1096.02 1246.28 1168.59 1201.75 1233.45 1150.77C1241.64 1144.33 1246.94 1138.28 1244.12 1126.95V1126.97Z"
			fill="#FEF3C7" />
		<path
			d="M1144 534V536V539V540.96H1143.12C1132.97 540.71 1122.74 541.31 1112.58 541.01C1054.36 539.29 995.849 536.04 937.659 532.93C928.809 532.46 924.5 532.5 914.129 532V531V528.01L914.129 526.98C924.609 527.22 934.51 527.721 945 528.011C947.37 528.071 950.219 527.94 952.589 528.01C1014.89 529.94 1081.77 531.03 1144 534Z"
			fill="#FEF3C7" />
		<path
			d="M706.932 1020.26C708.472 1020.13 710.002 1019.61 711.592 1019.95C849.992 1050.36 989.312 1077.23 1127.35 1109.25C1140.67 1112.34 1155.08 1115.12 1167.58 1120.01L1168.98 1125.26L1165.46 1128.79C1135.13 1145.49 1104.98 1173.53 1074.8 1189.13C1065.87 1193.75 1057.69 1194.3 1047.89 1192.71L594.062 1078.54C588.412 1075.75 588.662 1068.3 594.432 1065.77C627.822 1054.46 661.142 1034.6 694.142 1023.48C698.322 1022.07 702.471 1020.62 706.921 1020.26H706.932ZM740.131 1031.98C728.081 1030.91 715.212 1024.18 703.092 1026.42C698.242 1027.32 693.862 1030.76 689.142 1031.98C689.282 1033.47 690.622 1033.53 691.682 1033.92C700.912 1037.32 713.071 1038.14 722.691 1041.01L740.131 1031.97V1031.98ZM778.131 1039.98L749.751 1034.27L733.131 1042.96L760.611 1049.04C766.531 1047.04 773.562 1044.1 778.122 1039.99L778.131 1039.98ZM727.131 1047.98L679.432 1037.26L658.122 1046.47L707.592 1057.93L727.122 1047.98H727.131ZM814.122 1047.98L787.751 1042.26L771.131 1051.95L797.611 1057.03L814.122 1047.97V1047.98ZM768.131 1056.98L736.602 1050.09L718.142 1059.95L749.542 1066.95L768.122 1056.97L768.131 1056.98ZM855.131 1057.96C854.991 1056.49 853.672 1056.39 852.592 1056.01C848.732 1054.65 827.922 1049.82 824.582 1049.92C821.242 1050.02 810.181 1057.61 807.131 1059.96C816.521 1058.92 833.661 1068.36 841.861 1065.19C845.891 1063.63 850.491 1058.81 855.131 1057.96ZM721.131 1066.98L651.622 1050.97C643.262 1050.35 635.112 1056.81 627.142 1058.98L700.822 1077.69L721.122 1066.98H721.131ZM809.131 1065.98L777.742 1059.25L760.131 1069.96L790.501 1076.69L809.131 1065.98ZM894.131 1064.98L864.711 1058.96C859.271 1062.13 852.732 1064.77 848.142 1068.95L876.691 1074.82L894.142 1064.97L894.131 1064.98ZM654.131 1071.98C643.851 1072.12 628.092 1063.92 618.622 1063.96C616.292 1063.96 602.661 1069.28 600.381 1070.69C599.061 1071.5 598.482 1071.47 599.122 1073.47L632.642 1081.98L654.131 1071.98ZM934.131 1072.97L903.691 1067.01L887.142 1076.96C896.392 1077.04 911.542 1084.96 919.872 1082.2C922.282 1081.4 929.971 1076.7 932.691 1075.07C933.581 1074.53 934.681 1075.59 934.131 1072.98V1072.97ZM850.131 1074.98L818.762 1068.27L801.142 1078.96L832.552 1085.97C838.532 1082.95 845.281 1079.57 850.131 1074.99V1074.98ZM762.131 1075.98L730.582 1069.11L711.131 1079.96L741.611 1087.04C748.751 1084.77 756.162 1080.5 762.122 1075.99L762.131 1075.98ZM693.122 1081.98L662.702 1074.96L644.142 1084.95L674.592 1091.92L686.812 1086.14L693.131 1081.98H693.122ZM975.131 1081.97C966.221 1082.69 951.702 1075.21 943.722 1075.98C939.822 1076.36 930.311 1083.06 927.131 1085.96L958.662 1092.51C960.542 1092.36 971.582 1085.75 973.822 1084.2C974.702 1083.59 975.671 1084.37 975.131 1081.97ZM891.131 1083.98L859.771 1077.25C858.441 1077.38 845.521 1085.3 843.441 1086.73C842.561 1087.34 841.591 1086.56 842.131 1088.96L872.542 1094.95L891.122 1083.97L891.131 1083.98ZM803.122 1085.98L772.742 1079.01L768.892 1080.24L752.131 1089.96L783.572 1096.93L803.122 1085.98ZM729.131 1091.96C728.991 1090.49 727.672 1090.39 726.592 1090.01C723.362 1088.87 705.332 1084.65 702.622 1084.89C699.132 1085.19 687.331 1092.51 684.131 1094.96L709.542 1100.96L729.131 1091.96ZM1018.13 1091.98L985.622 1084.88L968.142 1094.95C978.242 1094.54 996.701 1104.65 1005.48 1100.8C1009.03 1099.24 1015.01 1094.62 1018.13 1091.97V1091.98ZM934.131 1092.97L901.762 1086.25L882.131 1097.96L915.532 1104.95C917.762 1104.74 929.992 1097.03 932.832 1095.21C933.822 1094.58 934.612 1095.31 934.122 1092.97H934.131ZM845.131 1094.98L812.682 1088L793.142 1099.96L825.562 1106.96L845.142 1094.98H845.131ZM931.131 1138.98L740.352 1093.19L720.142 1103.47L907.771 1150.9L912.852 1150.18L931.122 1138.97L931.131 1138.98ZM1062.13 1102.96C1061.99 1101.51 1060.67 1101.39 1059.6 1101.01C1050.16 1097.69 1037.59 1096.87 1027.75 1094.25L1012.14 1104.96C1021.74 1104.67 1036.95 1112.45 1045.63 1112.03C1050.96 1111.77 1056.72 1104.31 1062.14 1102.95L1062.13 1102.96ZM979.131 1102.98L943.622 1095.89L925.131 1107.96C934.801 1108.02 950.832 1116.58 959.642 1116.05C963.872 1115.8 975.071 1105.84 979.131 1102.98ZM887.131 1104.98L853.592 1097.41L835.131 1109.96L868.532 1116.95L887.131 1104.98ZM1159.14 1122.97L1073.57 1103.91C1068.76 1103.86 1060.32 1111.54 1056.14 1114.47L1142.83 1134.7C1144.64 1134.71 1155.68 1126.99 1157.87 1125.25C1158.67 1124.62 1159.71 1125.28 1159.14 1122.97ZM1026.13 1113.98L988.711 1105.98C987.181 1106.14 972.782 1115.12 970.432 1116.74C969.552 1117.35 968.582 1116.57 969.122 1118.97L1006.57 1126.94L1026.12 1113.98H1026.13ZM934.131 1115.98L896.751 1107.25L877.142 1119.96C887.102 1120.5 904.522 1128.69 913.622 1128.04C914.762 1127.96 915.851 1127.76 916.861 1127.19L934.131 1115.98ZM1071.13 1125.96C1070.99 1124.51 1069.67 1124.39 1068.6 1124.01C1064.4 1122.54 1040.09 1116.68 1036.65 1116.91C1034.72 1117.04 1033.06 1117.79 1031.46 1118.79L1016.14 1128.96L1052.64 1137.05L1071.13 1125.96ZM977.131 1127.96C976.991 1126.47 975.652 1126.41 974.592 1126.02C965.472 1122.67 953.151 1121.97 943.631 1118.89L924.142 1130.96L956.671 1138.85L977.131 1127.96ZM1136.13 1138.97L1080.66 1126.99L1062.13 1139.95L1116.62 1152.03C1119.59 1151.89 1131.88 1143.6 1134.86 1141.25C1135.67 1140.61 1136.7 1141.28 1136.13 1138.97ZM1025.13 1136.98L987.722 1128.99L967.131 1141.96L1004.55 1149.96L1025.13 1136.98ZM1109.14 1156.97L1035.6 1139.94C1029.86 1140 1020.47 1150.91 1014.14 1151.98L1088.68 1170.85C1090.38 1170.79 1105.19 1161.02 1107.83 1159.2C1108.72 1158.59 1109.67 1159.36 1109.14 1156.97ZM974.131 1148.97L940.622 1141.88L920.142 1153.95L953.542 1161.95C955.892 1161.72 969.812 1153.15 972.842 1151.21C973.832 1150.58 974.621 1151.31 974.131 1148.97ZM1015.13 1158.98L983.852 1152.17L963.131 1164.96C972.501 1165.49 990.201 1174.43 998.481 1170.81C1003.39 1168.66 1010.57 1162.3 1015.13 1158.98ZM1082.13 1175.98L1024.68 1162.01L1004.13 1174.47C1021.05 1177.63 1049.15 1190.65 1065.69 1186.02L1082.13 1175.98Z"
			fill="#FEF3C7" />
		<path
			d="M609.433 1153.25C631.693 1142.67 653.353 1130.32 675.773 1120.11C680.623 1117.9 689.943 1112.81 694.623 1112.89L867.143 1156.46C873.033 1158.42 884.603 1162.66 876.063 1169.4C866.643 1176.83 847.873 1186.67 836.803 1193.14C827.083 1198.82 814.963 1206.82 805.143 1211.48C801.883 1213.03 800.583 1214.11 796.633 1214.04C785.623 1213.84 755.463 1203.18 742.913 1199.68C703.083 1188.58 658.203 1177.67 619.613 1163.98C614.973 1162.33 604.083 1159.69 609.433 1153.25ZM870.133 1163.98L695.523 1119.05C691.763 1118.95 670.943 1129.65 665.773 1132.11C651.673 1138.83 634.173 1146.61 620.883 1154.22C619.803 1154.84 618.883 1155.47 618.133 1156.47L796.813 1207.63C799.303 1207.61 801.633 1206.19 803.813 1205.15C821.423 1196.75 846.433 1180.56 863.433 1169.78C865.093 1168.73 867.413 1167.4 868.863 1166.26C869.663 1165.63 870.703 1166.29 870.133 1163.98Z"
			fill="#FEF3C7" />
	</g>
	<g filter="url(#filter12_d_350_62)">
		<path
			d="M763.89 479.231L893.63 479.971C905.61 481.621 912.33 490.531 912.2 502.491C908.3 532.671 907.39 563.231 904.12 593.471C901.94 613.661 902.73 639.891 875.58 639.011C848.74 638.141 821.49 635.371 794.67 633.931C782.26 633.271 767.88 634.351 755.63 632.971C728.64 629.941 737.82 598.031 739.12 580.461C740.93 556.031 741.051 528.621 744.261 504.601C745.911 492.241 750.42 481.691 763.89 479.231ZM768.91 486.251C759.19 487.321 754.2 490.681 752.22 500.551C750.85 534.511 744.91 569.581 744.1 603.421C743.8 615.761 747.08 624.601 760.65 625.951C772.49 627.131 785.73 626.301 797.63 626.971C822.23 628.361 846.98 631.141 871.6 632.001C881.09 632.331 886.52 632.971 891.52 623.841C897.28 613.331 897.87 575.561 899.14 561.461C900.6 545.301 903.57 527.511 904.17 511.491C904.83 494.221 902.66 488.161 884.67 486.911C853.44 484.731 817.41 487.101 785.58 487.001C779.92 486.981 774.85 485.581 768.9 486.241L768.91 486.251Z"
			fill="#C026D3" />
		<path
			d="M828.354 601.761L822.574 577.931L792.284 577.111L783.153 600.491L772.844 599.991L771.594 597.991L803.813 512.121L821.673 512.941L842.083 599.521C841.813 605.051 831.944 602.611 828.374 601.751L828.354 601.761ZM821.133 565.961L811.153 523.971L797.144 564.961L821.133 565.961Z"
			fill="#C026D3" />
		<path
			d="M862.37 513.221C864.13 511.181 875.73 510.881 876.07 515.381L868.99 601.331C868.17 603.881 856.1 603.891 855.27 601.331C855.07 598.061 854.98 594.711 855.09 591.431C855.89 568.571 858.72 541.451 861.14 518.481C861.27 517.261 861.75 513.941 862.37 513.221Z"
			fill="#C026D3" />
	</g>
	<path
		d="M590.564 483.987C597.43 483.976 604.285 484.173 606.492 484.525C610.613 485.183 613.96 489.155 614.601 493.125L614.653 493.51C614.959 496.115 615.136 502.584 615.083 508.992C615.057 512.191 614.973 515.364 614.822 518.019C614.67 520.689 614.452 522.79 614.167 523.874V523.875C612.928 528.615 608.142 530.772 603.448 531.365C599.727 531.837 592.614 532.247 585.838 531.791C582.45 531.563 579.164 531.119 576.437 530.365C573.69 529.606 571.596 528.557 570.49 527.179C569.997 526.564 569.541 525.603 569.139 524.341C568.739 523.086 568.404 521.568 568.132 519.865C567.588 516.461 567.304 512.358 567.263 508.229C567.222 504.102 567.423 499.963 567.844 496.49C568.267 492.991 568.905 490.246 569.695 488.847C570.173 488.003 571.005 487.06 571.977 486.27C572.952 485.476 574.019 484.877 574.949 484.67L574.95 484.669C575.93 484.448 578.1 484.278 580.927 484.164C583.734 484.05 587.142 483.993 590.564 483.987ZM589.834 490.133C586.779 490.145 583.755 490.19 581.372 490.271C580.181 490.312 579.146 490.363 578.346 490.424C577.946 490.454 577.601 490.487 577.321 490.523C577.052 490.559 576.812 490.601 576.643 490.657H576.642C575.443 491.061 574.746 492.09 574.327 493.164C573.907 494.241 573.73 495.458 573.624 496.394C573.404 498.273 573.299 504.343 573.416 510.159C573.475 513.074 573.589 515.941 573.776 518.205C573.87 519.336 573.982 520.326 574.116 521.1C574.183 521.486 574.258 521.827 574.34 522.109C574.419 522.381 574.518 522.639 574.652 522.83V522.831C575.294 523.736 576.319 524.339 577.376 524.743C578.44 525.15 579.591 525.375 580.552 525.488H580.553C585.531 526.063 597.73 526.063 602.708 525.488C604.939 525.229 606.575 524.694 607.708 523.566C608.771 522.509 609.317 521.004 609.595 518.964L609.647 518.549C610.014 515.379 610.532 508.706 610.011 502.684C609.75 499.676 609.228 496.791 608.273 494.578C607.322 492.372 605.886 490.718 603.748 490.426C602.963 490.318 600.995 490.241 598.495 490.191C595.98 490.142 592.89 490.121 589.834 490.133Z"
		fill="#FEF3C7" stroke="#FEF3C7" />
	<defs>
		<filter id="filter0_d_350_62" x="1170.74" y="425" width="162.656" height="173.264" filterUnits="userSpaceOnUse"
			color-interpolation-filters="sRGB">
			<feFlood flood-opacity="0" result="BackgroundImageFix" />
			<feColorMatrix in="SourceAlpha" type="matrix" values="0 0 0 0 0 0 0 0 0 0 0 0 0 0 0 0 0 0 127 0"
				result="hardAlpha" />
			<feOffset />
			<feGaussianBlur stdDeviation="5" />
			<feComposite in2="hardAlpha" operator="out" />
			<feColorMatrix type="matrix" values="0 0 0 0 0 0 0 0 0 1 0 0 0 0 0.88 0 0 0 0.4 0" />
			<feBlend mode="normal" in2="BackgroundImageFix" result="effect1_dropShadow_350_62" />
			<feBlend mode="normal" in="SourceGraphic" in2="effect1_dropShadow_350_62" result="shape" />
		</filter>
		<filter id="filter1_d_350_62" x="474.457" y="661.118" width="241.332" height="83.667" filterUnits="userSpaceOnUse"
			color-interpolation-filters="sRGB">
			<feFlood flood-opacity="0" result="BackgroundImageFix" />
			<feColorMatrix in="SourceAlpha" type="matrix" values="0 0 0 0 0 0 0 0 0 0 0 0 0 0 0 0 0 0 127 0"
				result="hardAlpha" />
			<feOffset />
			<feGaussianBlur stdDeviation="5" />
			<feComposite in2="hardAlpha" operator="out" />
			<feColorMatrix type="matrix" values="0 0 0 0 0.752941 0 0 0 0 0.14902 0 0 0 0 0.827451 0 0 0 0.4 0" />
			<feBlend mode="normal" in2="BackgroundImageFix" result="effect1_dropShadow_350_62" />
			<feBlend mode="normal" in="SourceGraphic" in2="effect1_dropShadow_350_62" result="shape" />
		</filter>
		<filter id="filter2_d_350_62" x="470.195" y="829.219" width="141.125" height="123.216" filterUnits="userSpaceOnUse"
			color-interpolation-filters="sRGB">
			<feFlood flood-opacity="0" result="BackgroundImageFix" />
			<feColorMatrix in="SourceAlpha" type="matrix" values="0 0 0 0 0 0 0 0 0 0 0 0 0 0 0 0 0 0 127 0"
				result="hardAlpha" />
			<feOffset />
			<feGaussianBlur stdDeviation="5" />
			<feComposite in2="hardAlpha" operator="out" />
			<feColorMatrix type="matrix" values="0 0 0 0 0 0 0 0 0 1 0 0 0 0 0.88 0 0 0 0.4 0" />
			<feBlend mode="normal" in2="BackgroundImageFix" result="effect1_dropShadow_350_62" />
			<feBlend mode="normal" in="SourceGraphic" in2="effect1_dropShadow_350_62" result="shape" />
		</filter>
		<filter id="filter3_d_350_62" x="743.012" y="735.774" width="146.301" height="238.087" filterUnits="userSpaceOnUse"
			color-interpolation-filters="sRGB">
			<feFlood flood-opacity="0" result="BackgroundImageFix" />
			<feColorMatrix in="SourceAlpha" type="matrix" values="0 0 0 0 0 0 0 0 0 0 0 0 0 0 0 0 0 0 127 0"
				result="hardAlpha" />
			<feOffset />
			<feGaussianBlur stdDeviation="5" />
			<feComposite in2="hardAlpha" operator="out" />
			<feColorMatrix type="matrix" values="0 0 0 0 0 0 0 0 0 1 0 0 0 0 0.88 0 0 0 0.4 0" />
			<feBlend mode="normal" in2="BackgroundImageFix" result="effect1_dropShadow_350_62" />
			<feBlend mode="normal" in="SourceGraphic" in2="effect1_dropShadow_350_62" result="shape" />
		</filter>
		<filter id="filter4_d_350_62" x="1025.98" y="991.009" width="88.0039" height="38.7129" filterUnits="userSpaceOnUse"
			color-interpolation-filters="sRGB">
			<feFlood flood-opacity="0" result="BackgroundImageFix" />
			<feColorMatrix in="SourceAlpha" type="matrix" values="0 0 0 0 0 0 0 0 0 0 0 0 0 0 0 0 0 0 127 0"
				result="hardAlpha" />
			<feOffset />
			<feGaussianBlur stdDeviation="5" />
			<feComposite in2="hardAlpha" operator="out" />
			<feColorMatrix type="matrix" values="0 0 0 0 0.752941 0 0 0 0 0.14902 0 0 0 0 0.827451 0 0 0 0.4 0" />
			<feBlend mode="normal" in2="BackgroundImageFix" result="effect1_dropShadow_350_62" />
			<feBlend mode="normal" in="SourceGraphic" in2="effect1_dropShadow_350_62" result="shape" />
		</filter>
		<filter id="filter5_d_350_62" x="1102.05" y="1005.75" width="64.7266" height="33.1797" filterUnits="userSpaceOnUse"
			color-interpolation-filters="sRGB">
			<feFlood flood-opacity="0" result="BackgroundImageFix" />
			<feColorMatrix in="SourceAlpha" type="matrix" values="0 0 0 0 0 0 0 0 0 0 0 0 0 0 0 0 0 0 127 0"
				result="hardAlpha" />
			<feOffset />
			<feGaussianBlur stdDeviation="5" />
			<feComposite in2="hardAlpha" operator="out" />
			<feColorMatrix type="matrix" values="0 0 0 0 0.752941 0 0 0 0 0.14902 0 0 0 0 0.827451 0 0 0 0.4 0" />
			<feBlend mode="normal" in2="BackgroundImageFix" result="effect1_dropShadow_350_62" />
			<feBlend mode="normal" in="SourceGraphic" in2="effect1_dropShadow_350_62" result="shape" />
		</filter>
		<filter id="filter6_d_350_62" x="897.531" y="962.057" width="40.4922" height="48.4609" filterUnits="userSpaceOnUse"
			color-interpolation-filters="sRGB">
			<feFlood flood-opacity="0" result="BackgroundImageFix" />
			<feColorMatrix in="SourceAlpha" type="matrix" values="0 0 0 0 0 0 0 0 0 0 0 0 0 0 0 0 0 0 127 0"
				result="hardAlpha" />
			<feOffset />
			<feGaussianBlur stdDeviation="5" />
			<feComposite in2="hardAlpha" operator="out" />
			<feColorMatrix type="matrix" values="0 0 0 0 0.752941 0 0 0 0 0.14902 0 0 0 0 0.827451 0 0 0 0.4 0" />
			<feBlend mode="normal" in2="BackgroundImageFix" result="effect1_dropShadow_350_62" />
			<feBlend mode="normal" in="SourceGraphic" in2="effect1_dropShadow_350_62" result="shape" />
		</filter>
		<filter id="filter7_d_350_62" x="951.898" y="977.018" width="49.9102" height="31.0039" filterUnits="userSpaceOnUse"
			color-interpolation-filters="sRGB">
			<feFlood flood-opacity="0" result="BackgroundImageFix" />
			<feColorMatrix in="SourceAlpha" type="matrix" values="0 0 0 0 0 0 0 0 0 0 0 0 0 0 0 0 0 0 127 0"
				result="hardAlpha" />
			<feOffset />
			<feGaussianBlur stdDeviation="5" />
			<feComposite in2="hardAlpha" operator="out" />
			<feColorMatrix type="matrix" values="0 0 0 0 0.752941 0 0 0 0 0.14902 0 0 0 0 0.827451 0 0 0 0.4 0" />
			<feBlend mode="normal" in2="BackgroundImageFix" result="effect1_dropShadow_350_62" />
			<feBlend mode="normal" in="SourceGraphic" in2="effect1_dropShadow_350_62" result="shape" />
		</filter>
		<filter id="filter8_d_350_62" x="989.355" y="984.362" width="48.6719" height="30.5693" filterUnits="userSpaceOnUse"
			color-interpolation-filters="sRGB">
			<feFlood flood-opacity="0" result="BackgroundImageFix" />
			<feColorMatrix in="SourceAlpha" type="matrix" values="0 0 0 0 0 0 0 0 0 0 0 0 0 0 0 0 0 0 127 0"
				result="hardAlpha" />
			<feOffset />
			<feGaussianBlur stdDeviation="5" />
			<feComposite in2="hardAlpha" operator="out" />
			<feColorMatrix type="matrix" values="0 0 0 0 0.752941 0 0 0 0 0.14902 0 0 0 0 0.827451 0 0 0 0.4 0" />
			<feBlend mode="normal" in2="BackgroundImageFix" result="effect1_dropShadow_350_62" />
			<feBlend mode="normal" in="SourceGraphic" in2="effect1_dropShadow_350_62" result="shape" />
		</filter>
		<filter id="filter9_d_350_62" x="929.273" y="966.723" width="28.9688" height="48.3848" filterUnits="userSpaceOnUse"
			color-interpolation-filters="sRGB">
			<feFlood flood-opacity="0" result="BackgroundImageFix" />
			<feColorMatrix in="SourceAlpha" type="matrix" values="0 0 0 0 0 0 0 0 0 0 0 0 0 0 0 0 0 0 127 0"
				result="hardAlpha" />
			<feOffset />
			<feGaussianBlur stdDeviation="5" />
			<feComposite in2="hardAlpha" operator="out" />
			<feColorMatrix type="matrix" values="0 0 0 0 0.752941 0 0 0 0 0.14902 0 0 0 0 0.827451 0 0 0 0.4 0" />
			<feBlend mode="normal" in2="BackgroundImageFix" result="effect1_dropShadow_350_62" />
			<feBlend mode="normal" in="SourceGraphic" in2="effect1_dropShadow_350_62" result="shape" />
		</filter>
		<filter id="filter10_d_350_62" x="906.156" y="900.891" width="263.836" height="92.1328" filterUnits="userSpaceOnUse"
			color-interpolation-filters="sRGB">
			<feFlood flood-opacity="0" result="BackgroundImageFix" />
			<feColorMatrix in="SourceAlpha" type="matrix" values="0 0 0 0 0 0 0 0 0 0 0 0 0 0 0 0 0 0 127 0"
				result="hardAlpha" />
			<feOffset />
			<feGaussianBlur stdDeviation="5" />
			<feComposite in2="hardAlpha" operator="out" />
			<feColorMatrix type="matrix" values="0 0 0 0 0 0 0 0 0 1 0 0 0 0 0.88 0 0 0 0.4 0" />
			<feBlend mode="normal" in2="BackgroundImageFix" result="effect1_dropShadow_350_62" />
			<feBlend mode="normal" in="SourceGraphic" in2="effect1_dropShadow_350_62" result="shape" />
		</filter>
		<filter id="filter11_d_350_62" x="409" y="516.98" width="930.5" height="805.214" filterUnits="userSpaceOnUse"
			color-interpolation-filters="sRGB">
			<feFlood flood-opacity="0" result="BackgroundImageFix" />
			<feColorMatrix in="SourceAlpha" type="matrix" values="0 0 0 0 0 0 0 0 0 0 0 0 0 0 0 0 0 0 127 0"
				result="hardAlpha" />
			<feOffset />
			<feGaussianBlur stdDeviation="5" />
			<feComposite in2="hardAlpha" operator="out" />
			<feColorMatrix type="matrix" values="0 0 0 0 0.996078 0 0 0 0 0.952941 0 0 0 0 0.780392 0 0 0 0.4 0" />
			<feBlend mode="normal" in2="BackgroundImageFix" result="effect1_dropShadow_350_62" />
			<feBlend mode="normal" in="SourceGraphic" in2="effect1_dropShadow_350_62" result="shape" />
		</filter>
		<filter id="filter12_d_350_62" x="726.574" y="469.231" width="195.629" height="179.802" filterUnits="userSpaceOnUse"
			color-interpolation-filters="sRGB">
			<feFlood flood-opacity="0" result="BackgroundImageFix" />
			<feColorMatrix in="SourceAlpha" type="matrix" values="0 0 0 0 0 0 0 0 0 0 0 0 0 0 0 0 0 0 127 0"
				result="hardAlpha" />
			<feOffset />
			<feGaussianBlur stdDeviation="5" />
			<feComposite in2="hardAlpha" operator="out" />
			<feColorMatrix type="matrix" values="0 0 0 0 0.752941 0 0 0 0 0.14902 0 0 0 0 0.827451 0 0 0 0.4 0" />
			<feBlend mode="normal" in2="BackgroundImageFix" result="effect1_dropShadow_350_62" />
			<feBlend mode="normal" in="SourceGraphic" in2="effect1_dropShadow_350_62" result="shape" />
		</filter>
	</defs>
</svg>
