<svg width="679" height="654" viewBox="0 0 679 654" fill="none" xmlns="http://www.w3.org/2000/svg">
<g filter="url(#filter0_d_399_179)">
<path d="M128.497 644.487C120.167 642.085 116.462 639.459 107.293 629.464L98.5904 619.976L96.2378 621.717C94.944 622.674 93.2827 623.336 92.5461 623.189C90.8312 622.846 78.6118 604.362 63.6035 579.409C48.8386 554.861 49.0544 555.288 50.4365 553.356C51.2924 552.159 51.7959 552.032 52.9026 552.732C53.6675 553.216 59.2365 561.843 65.2783 571.903C75.8678 589.534 93.0984 616.951 93.5896 616.951C94.1053 616.951 138.123 582.339 138.343 581.761C138.472 581.422 132.269 571.19 124.558 559.024C113.282 541.232 110.695 536.647 111.335 535.591C113.374 532.235 114.844 533.972 129.833 557.443C140.031 573.413 144.628 581.293 144.635 582.816C144.641 584.209 145.567 586.025 147.144 587.735C149.162 589.924 150.429 590.544 153.723 590.952L157.802 591.458L157.369 584.834C157.131 581.192 156.589 572.82 156.165 566.23C153.954 531.852 149.678 515.561 139.847 504.064L136.571 500.233L130.035 500.037C115.193 499.593 98.2931 489.213 87.9886 474.212C84.1309 468.597 84.4606 468.666 76.3275 471.774C65.9364 475.747 50.216 489.89 42.1208 502.551C26.1233 527.569 16.2922 563.679 10.0612 620.306C9.2303 627.857 8.23905 634.358 7.85839 634.754C6.33207 636.339 4.31491 634.945 4.04867 632.121C3.46929 625.975 8.17052 590.4 12.3885 569.011C19.5711 532.589 31.4497 504.796 47.559 486.722C56.8209 476.331 71.6293 466.455 80.9803 464.435C84.2832 463.721 85.3903 463.04 86.8479 460.826C89.1178 457.378 92.314 449.363 92.338 447.06C92.3482 446.096 89.915 441.423 86.9313 436.676C80.6435 426.671 77.1017 419.284 74.5582 410.869C72.985 405.664 72.7524 403.312 72.7809 392.898C72.8108 382.049 73.0061 380.344 74.8504 374.849C79.4063 361.276 88.6443 349.861 100.819 342.761C111.413 336.582 117.67 334.836 130.804 334.394C144.674 333.927 152.152 335.163 168.096 340.556C174.441 342.702 180.982 344.69 182.631 344.974C191.299 346.464 193.581 359.185 186.5 366.54L183.823 369.321L185.356 372.441C187.723 377.262 190.013 386.789 190.013 391.818C190.013 395.792 190.46 397.144 193.583 402.617C199.142 412.36 204.623 424.473 204.623 427.014C204.623 432.663 201.261 435.496 193.695 436.225L189.302 436.647L188.083 442.73C184.443 460.88 179.654 470.271 171.947 474.372C167.743 476.609 166.876 476.768 158.928 476.768C154.244 476.768 148.99 476.476 147.251 476.118L144.091 475.468L142.035 480.511C140.904 483.285 139.49 487.495 138.892 489.866C137.822 494.104 137.835 494.202 139.681 495.71C142.008 497.611 147.49 505.053 150.302 510.127C157.178 522.533 160.844 543.337 162.163 577.438L162.715 591.701L166.944 591.98C169.27 592.134 181.208 592.755 193.473 593.359C205.738 593.964 216.465 594.679 217.311 594.949C218.415 595.301 221.513 593.649 228.309 589.083C240.288 581.033 242.762 580.117 253.869 579.621C267.397 579.016 280.858 582.456 285.007 587.579C286.681 589.645 286.98 590.709 286.769 593.857C286.559 597.01 286.839 598.005 288.438 599.775C289.901 601.394 290.361 602.764 290.361 605.499C290.361 608.547 289.98 609.448 287.862 611.414C285.991 613.151 285.363 614.402 285.363 616.39C285.363 617.983 284.717 619.766 283.751 620.844C280.979 623.934 278.76 624.337 270.279 623.293C257.837 621.762 254.629 622.293 246.345 627.26C236.932 632.903 234.656 633.649 226.73 633.69C220.092 633.724 220.002 633.752 220.002 635.704C220.002 639.497 218.134 639.929 190.36 642.57C158.883 645.564 134.814 646.309 128.497 644.487Z" fill="#00FFE0"/>
</g>
<g filter="url(#filter1_d_399_179)">
<path d="M178.863 638.046C207.44 635.493 213.826 634.815 214.342 634.279C214.573 634.04 214.297 626.179 213.729 616.811L212.697 599.778L201.162 599.179C165.003 597.3 149.911 596.154 147.496 595.107C146.076 594.49 143.848 592.642 142.544 590.999C141.241 589.357 139.874 588.144 139.507 588.304C139.139 588.464 130.823 594.855 121.025 602.505C104.699 615.252 103.294 616.539 104.213 617.9C104.764 618.718 108.381 622.813 112.251 627.001C117.711 632.912 120.388 635.152 124.204 637.007C133.216 641.388 140.013 641.517 178.863 638.046Z" fill="#701A75"/>
</g>
<g filter="url(#filter2_d_399_179)">
<path d="M232.807 627.878C234.958 627.298 240.179 624.771 244.409 622.261C253.632 616.789 256.326 616.299 269.228 617.751C276.639 618.585 278.623 618.588 279.573 617.77C281.001 616.539 281.03 616.057 279.78 614.283C278.357 612.261 270.761 610.466 261.141 609.879C253.131 609.391 252.67 609.268 252.437 607.567C252.253 606.22 252.733 605.551 254.359 604.887C257.245 603.711 269.784 604.519 275.751 606.266C278.289 607.009 281.403 607.651 282.672 607.692C284.625 607.754 285.015 607.437 285.217 605.619C285.396 604.009 284.933 603.117 283.364 602.049C281.021 600.454 264.618 597.048 259.089 597.008C254.483 596.974 253.067 596.381 253.067 594.481C253.067 591.028 258.419 590.788 273.661 593.558C281.016 594.895 282.815 594.549 281.867 591.982C280.651 588.69 266.628 584.719 256.143 584.697C246.889 584.679 241.337 586.581 231.973 592.98C227.715 595.89 222.758 599.127 220.958 600.173C218.785 601.436 217.8 602.496 218.028 603.323C218.218 604.009 218.588 609.064 218.85 614.555C219.571 629.641 219.293 628.933 224.51 628.933C226.921 628.933 230.655 628.458 232.807 627.878Z" fill="#701A75"/>
</g>
<g filter="url(#filter3_d_399_179)">
<path d="M133.405 489.825C135.272 482.849 139.118 472.736 140.651 470.772C141.917 469.15 142.09 469.138 146.951 470.329C149.7 471.002 154.909 471.559 158.527 471.565C164.097 471.576 165.723 471.256 169.151 469.482C171.729 468.147 173.919 466.256 175.182 464.274C176.273 462.561 177.028 461.052 176.86 460.919C176.693 460.786 174.825 460.025 172.711 459.226C167.913 457.416 162.273 451.6 160.416 446.55C159.13 443.052 159.128 442.741 160.377 440.761C161.949 438.269 162.582 438.357 171.173 442.272C174.556 443.813 178.387 445.301 179.685 445.577L182.046 446.08L182.972 440.856C184.534 432.05 184.685 431.837 189.778 431.252C197.498 430.367 198.442 430.04 198.914 428.085C199.376 426.172 195.344 417.082 188.768 405.214C185.832 399.914 185.321 398.267 184.683 392.034C184.009 385.447 182.635 380.194 179.819 373.441L178.7 370.758L168.479 370.886C153.776 371.07 152.251 372.23 148.89 385.795C146.655 394.81 142.96 403.28 140.717 404.527C137.508 406.311 134.498 405.132 131.419 400.886C124.508 391.357 116.549 391.994 111.861 402.451C109.793 407.066 109.46 413.471 111.08 417.499C112.359 420.678 117.033 425.055 119.86 425.719C126.541 427.29 126.574 427.308 126.574 429.293C126.574 431.004 126.188 431.268 123.379 431.481C121.621 431.614 118.918 431.174 117.372 430.503L114.562 429.283L107.629 436.817C103.815 440.96 100.03 444.57 99.2168 444.838C98.4036 445.106 97.7383 445.982 97.7383 446.785C97.7383 449.917 94.5049 458.879 91.954 462.817L89.2715 466.958L91.9463 470.743C100.921 483.442 118.076 494.549 128.947 494.698L132.089 494.741L133.405 489.825Z" fill="#701A75"/>
</g>
<g filter="url(#filter4_d_399_179)">
<path d="M170.174 403.522C167.797 401.053 170.482 395.694 174.095 395.694C176.427 395.694 177.709 397.124 177.709 399.724C177.709 403.53 172.641 406.085 170.174 403.522Z" fill="#00FFE0"/>
</g>
<g filter="url(#filter5_d_399_179)">
<path d="M179.83 453.708C180.632 451.88 180.457 451.741 174.763 449.692C165.269 446.276 165.488 446.269 168.812 449.882C171.249 452.531 175.756 455.15 178.547 455.538C178.796 455.572 179.374 454.749 179.83 453.708Z" fill="#701A75"/>
</g>
<g filter="url(#filter6_d_399_179)">
<path d="M330.445 644.047C327.103 641.316 329.051 647.467 310.987 582.604C295.408 526.662 295.742 528.379 299.793 525.069C301.671 523.534 303.196 523.496 362.386 523.496C427.755 523.496 426.841 523.439 429.414 527.622C430.699 529.711 435.587 546.326 441.534 568.819C443.713 577.06 445.563 583.887 445.646 583.991C445.887 584.295 457.761 581.854 460.417 580.955C462.638 580.204 462.953 579.652 464.169 574.38C467.56 559.676 481.054 521.062 487.394 507.92C491.516 499.375 496.535 492.03 502.362 486.013L507.648 480.554L503.38 480C497.4 479.224 489.353 474.835 484.955 469.951C478.389 462.66 476.701 455.749 478.718 444.418C481.611 428.173 483.014 418.471 484.141 406.932C484.802 400.153 485.648 393.203 486.019 391.488C486.594 388.828 486.424 387.958 484.858 385.562C479.728 377.709 482.274 367.499 492.124 356.414C503.139 344.018 518.258 336.177 537.458 332.901C546.111 331.424 557.748 331.789 564.876 333.76C571.596 335.618 582.716 341.58 587.377 345.823C596.511 354.139 602.355 365.665 611.005 392.425C615.579 406.573 617.942 412.597 621.14 418.261C629.204 432.541 631.074 438.445 630.441 447.637C629.826 456.561 624.034 464.929 616.114 468.337C613.397 469.506 612.934 470.777 615.224 470.777C616.06 470.777 619.088 471.691 621.953 472.808C638.583 479.293 650.579 492.15 657.59 511.002C668.337 539.899 677.523 602.136 673.406 618.149C670.237 630.47 661.916 638.238 647.538 642.298C643.177 643.529 639.157 643.698 616.011 643.618C584.753 643.51 560.654 642.224 559.48 640.602C558.926 639.835 555.911 639.409 549.1 639.134C541.515 638.828 538.209 638.306 533.349 636.645C529.965 635.49 526.332 634.541 525.275 634.536C523.54 634.529 523.348 634.851 523.311 637.825C523.277 640.499 522.804 641.554 520.8 643.414L518.33 645.706H425.403C332.484 645.706 332.476 645.706 330.445 644.047Z" fill="#C026D3"/>
</g>
<g filter="url(#filter7_d_399_179)">
<path d="M517.969 637.319V634.923L486.827 634.524C469.698 634.304 455.256 633.836 454.733 633.485C454.21 633.133 453.101 630.437 452.267 627.494C448.597 614.529 438.687 578.623 432.605 556.253C428.963 542.858 425.433 531.266 424.759 530.492C423.61 529.174 419.814 529.087 363.267 529.087C312.163 529.087 302.936 529.258 302.584 530.211C302.356 530.83 304.985 541.523 308.427 553.974C322.264 604.023 331.693 637.392 332.375 638.72C333.055 640.046 338.087 640.11 425.532 639.918L517.969 639.715V637.319Z" fill="#701A75"/>
</g>
<g filter="url(#filter8_d_399_179)">
<path d="M369.177 595.184C365.961 592.904 363.795 588.697 363.795 584.733C363.795 582.265 364.339 581.08 366.508 578.827C368.938 576.303 369.542 576.054 372.304 576.439C378.446 577.295 382.242 581.883 382.247 588.456C382.249 591.655 381.867 592.71 380.002 594.647C377.149 597.61 372.896 597.821 369.177 595.184Z" fill="#C026D3"/>
</g>
<g filter="url(#filter9_d_399_179)">
<path d="M649.192 636.261C659.08 632.872 665.571 626.551 668.048 617.896C670.407 609.65 669.416 593.008 664.806 563.498C660.22 534.137 653.507 511.141 646.079 499.352C636.581 484.275 620.736 475.129 601.273 473.488L595.634 473.013L593.345 477.686C590.003 484.507 578.631 496.176 572.181 499.403C550.928 510.032 534.093 502.608 531.711 481.556C531.236 477.355 531.142 477.209 529.207 477.65C509.73 482.086 498.489 493.767 487.619 520.866C481.696 535.633 474.208 557.59 470.924 569.824C467.468 582.697 466.936 584.089 465.082 585.12C464.234 585.592 459.899 586.746 455.45 587.686C451.001 588.625 447.346 589.573 447.328 589.793C447.309 590.013 449.684 598.909 452.602 609.562L457.909 628.932H466.902C475.639 628.932 475.908 628.88 476.338 627.099C477.167 623.671 483.007 615.252 488.363 609.764C492.032 606.006 495.578 603.319 499.686 601.185L505.667 598.077L504.337 591.739C501.763 579.472 499.137 558.277 499.134 549.743C499.13 535.992 502.295 521.898 505.39 521.898C507.694 521.898 507.798 523.471 506.097 532.624C503.374 547.284 504.504 566.864 509.373 589.406L511.049 597.164L519.892 597.367C525.861 597.504 531.831 598.254 538.261 599.673C549.101 602.065 551.946 602.245 553.666 600.647C555.111 599.303 562.446 598.396 589.867 596.17C601.074 595.26 611.296 594.35 612.583 594.147L614.921 593.777L610.877 566.424C606.064 533.88 605.933 532.413 607.73 531.206C610.485 529.357 611.131 531.928 615.548 562.342C617.917 578.656 619.856 592.417 619.856 592.922C619.856 593.563 621.011 593.683 623.66 593.318C628.553 592.643 631.39 593.371 631.39 595.302C631.39 597.798 629.797 598.354 621.009 598.925C616.357 599.227 600.613 600.53 586.022 601.819C571.431 603.109 559.424 604.165 559.34 604.167C559.256 604.169 559.711 605.474 560.352 607.067C561.709 610.441 563.686 624.865 563.707 631.553C563.719 634.511 564.068 636.301 564.684 636.532C566.995 637.399 598.377 638.328 620.24 638.178C642.475 638.025 644.422 637.896 649.192 636.261Z" fill="#701A75"/>
</g>
<g filter="url(#filter10_d_399_179)">
<path d="M558.044 626.01C557.502 618.001 556.581 612.485 555.176 608.826C554.467 606.979 554.022 606.747 551.882 607.108C550.521 607.338 544.757 606.505 539.071 605.258C530.612 603.403 526.848 602.994 518.353 603.004C508.827 603.015 507.624 603.186 503.743 605.071C496.232 608.718 486.686 618.101 481.977 626.466L480.588 628.933H482.808C484.552 628.933 485.551 628.177 487.466 625.407C492.131 618.659 504.059 610.213 508.217 610.714C511.996 611.169 511.045 613.314 505.598 616.623C502.775 618.338 498.348 621.793 495.761 624.302L491.056 628.862L495.551 628.896C499.788 628.93 500.439 628.658 506.938 624.142C513.895 619.308 516.822 617.964 518.31 618.919C520.282 620.185 518.92 622.473 514.316 625.626L509.51 628.917L518.353 628.936C525.918 628.951 528.252 629.291 534.501 631.289C540.598 633.238 543.192 633.633 550.186 633.675L558.566 633.725L558.044 626.01Z" fill="#701A75"/>
</g>
<g filter="url(#filter11_d_399_179)">
<path d="M563.948 497.129C572.973 494.234 580.594 487.821 587.421 477.378L590.666 472.414L588.536 471.94C580.254 470.097 573.297 464.656 570.87 458.123C569.225 453.694 569.04 439.7 570.555 434.173C571.263 431.587 571.282 430.443 570.628 429.624C570.148 429.023 569.868 427.703 570.006 426.69C570.227 425.072 570.787 424.8 574.634 424.444C578.128 424.12 579.505 423.556 581.459 421.648C584.982 418.208 586.753 413.703 586.773 408.127C586.822 394.466 576.27 389.266 567.699 398.726C566.078 400.516 565.5 400.657 561.548 400.227C555.544 399.575 544.439 396.166 537.886 392.964C525.877 387.096 513.14 376.447 508.986 368.802C507.714 366.459 506.446 364.568 506.169 364.6C504.87 364.749 497.336 374.87 495.255 379.261C490.111 390.115 487.623 415.099 490.238 429.641C493.73 449.058 504.905 461.609 521.302 464.53C527.5 465.634 533.466 464.77 540.125 461.803C543.582 460.262 543.911 460.241 545.11 461.487C547.04 463.491 545.507 465.312 540.315 467.183L535.881 468.781L536.403 475.036C537.487 488.029 540.328 494.375 546.331 497.206C550.538 499.191 557.619 499.16 563.948 497.129Z" fill="#701A75"/>
</g>
<g filter="url(#filter12_d_399_179)">
<path d="M507.726 444.849C505.758 443.924 505.228 443.233 505.419 441.837C505.629 440.304 506.081 440.054 508.358 440.21C518.445 440.903 520.295 440.716 524.87 438.54C527.396 437.339 530.049 435.805 530.765 435.131C532.393 433.601 535.558 433.989 535.883 435.758C536.212 437.555 532.878 440.612 527.668 443.289C522.331 446.032 511.969 446.842 507.726 444.849Z" fill="#C026D3"/>
</g>
<g filter="url(#filter13_d_399_179)">
<path d="M501.977 429.071C500.351 428.623 498.519 427.415 497.846 426.35C496.699 424.53 496.831 423.981 500.47 415.455C502.578 410.517 504.713 405.161 505.214 403.552C506.26 400.199 508.114 399.091 509.78 400.822C511.192 402.289 510.462 405.198 506.004 415.874C504.355 419.824 503.193 423.369 503.421 423.752C503.649 424.136 505.879 424.449 508.377 424.449C512.03 424.449 513.069 424.742 513.69 425.946C515.494 429.448 509.321 431.094 501.977 429.071Z" fill="#C026D3"/>
</g>
<g filter="url(#filter14_d_399_179)">
<path d="M494.041 404.048C493.01 402.413 492.93 401.632 493.632 400.032C494.738 397.511 496.414 396.841 498.795 397.968C500.233 398.648 500.668 399.471 500.668 401.507C500.668 402.967 500.253 404.592 499.746 405.119C498.185 406.74 495.411 406.219 494.041 404.048Z" fill="#C026D3"/>
</g>
<g filter="url(#filter15_d_399_179)">
<path d="M523.307 404.12C521.754 401.658 522.475 399.048 524.881 398.42C527.788 397.663 529.421 398.352 530.206 400.669C531.726 405.162 525.826 408.113 523.307 404.12Z" fill="#C026D3"/>
</g>
<g filter="url(#filter16_d_399_179)">
<path d="M32.9384 451.807C30.955 449.527 23.6149 431.28 19.8444 419.257C11.2089 391.72 7.69077 370.909 6.23707 338.762C5.35333 319.219 5.66749 316.217 8.59599 316.217H10.463L10.9963 330.994C11.7031 350.582 12.7946 362.141 15.484 378.52C19.2093 401.208 25.7922 423.71 34.1156 442.207C37.3118 449.31 37.8067 450.986 37.0037 451.992C35.7313 453.584 34.4332 453.525 32.9384 451.807Z" fill="#C026D3"/>
</g>
<g filter="url(#filter17_d_399_179)">
<path d="M272.968 449.608C270.798 448.383 268.445 444.042 268.445 441.262C268.445 438.883 270.408 435.174 272.457 433.683C274.352 432.304 280.09 432.015 282.207 433.191C283.329 433.815 286.261 431.303 299.116 418.707C310.995 407.068 314.532 403.164 314.091 402.177C313.773 401.467 313.383 398.729 313.224 396.093C312.981 392.09 313.228 390.847 314.722 388.548C317.282 384.607 321.043 382.567 325.701 382.592C333.049 382.632 338.422 387.7 339.017 395.152L339.348 399.288L351.303 405.094C361.744 410.165 363.414 410.758 364.488 409.783C367.557 406.996 370.987 405.881 375.28 406.276L379.558 406.669L396.091 385.605C405.184 374.02 413.242 363.719 413.998 362.714C415.266 361.027 415.281 360.659 414.19 357.947C408.922 344.85 422.393 333.206 433.842 340.961C441.342 346.042 440.665 359.313 432.654 364.228C430.461 365.574 425.994 365.94 420.762 365.203C419.161 364.978 416.73 367.708 403.215 384.91C394.586 395.893 386.697 405.976 385.683 407.315L383.841 409.751L385.737 413.641C387.99 418.265 388.081 420.567 386.179 424.849C382.953 432.111 375.807 435.133 368.925 432.146C364.07 430.039 359.994 422.538 361.136 417.812C361.541 416.134 361.143 415.706 357.795 414.209C355.704 413.275 350.179 410.601 345.516 408.267L337.039 404.024L334.687 406.206C331.225 409.42 326.778 410.607 322.783 409.385C321.022 408.847 319.153 408.331 318.63 408.24C318.108 408.149 310.755 414.849 302.29 423.129C288.054 437.056 286.9 438.39 286.9 440.941C286.9 448.547 279.378 453.226 272.968 449.608Z" fill="#C026D3"/>
</g>
<g filter="url(#filter18_d_399_179)">
<path d="M378.589 426.712C380.777 425.547 382.463 421.332 381.979 418.236C381.471 414.981 379.91 412.978 376.857 411.665C372.319 409.712 366.102 413.956 366.102 419.005C366.102 426.028 372.479 429.963 378.589 426.712Z" fill="#701A75"/>
</g>
<g filter="url(#filter19_d_399_179)">
<path d="M329.977 403.273C332.841 401.735 333.806 399.823 333.806 395.685C333.806 389.389 327.796 385.853 321.866 388.66C319.426 389.815 317.658 393.122 317.658 396.532C317.658 398.329 318.406 399.825 320.273 401.764C323.215 404.821 326.225 405.289 329.977 403.273Z" fill="#701A75"/>
</g>
<g filter="url(#filter20_d_399_179)">
<path d="M432.023 357.731C434.493 355.165 434.697 354.611 434.3 351.54C433.101 342.247 421.215 340.878 418.409 349.709C416.69 355.12 420.656 360.549 426.328 360.549C428.715 360.549 429.851 359.986 432.023 357.731Z" fill="#701A75"/>
</g>
<g filter="url(#filter21_d_399_179)">
<path d="M649.209 437.795C648.604 437.038 649.309 433.797 651.857 425.614C662.088 392.754 666.537 366.43 667.431 333.475C667.85 318 668.088 315.475 669.196 314.75C670.137 314.136 670.833 314.219 671.812 315.063C673.033 316.116 673.104 317.676 672.64 333.388C671.855 360.009 669.471 378.821 663.991 401.632C660.944 414.319 654.843 434.354 653.212 437.029C651.984 439.044 650.443 439.339 649.209 437.795Z" fill="#C026D3"/>
</g>
<g filter="url(#filter22_d_399_179)">
<path d="M332.56 330.626C331.239 330.04 329.595 328.723 328.906 327.701C327.925 326.246 327.064 325.895 324.946 326.085C322.709 326.285 321.766 325.835 319.513 323.495C317.928 321.849 315.679 320.447 314.142 320.147C311.439 319.62 307.662 315.898 307.662 313.759C307.662 313.134 306.936 312.623 306.048 312.623C305.16 312.623 303.213 311.356 301.722 309.807C299.192 307.178 299.036 306.727 299.381 303.004C299.71 299.449 299.574 298.971 298.131 298.607C292.594 297.206 276.254 292.766 274.919 292.299C273.49 291.799 273.004 292.514 270.416 298.925C267.576 305.962 265.919 308.318 262.537 310.127C261.323 310.776 237.599 311.025 176.967 311.025C86.192 311.025 89.6998 311.191 86.5306 306.757L85.0516 304.688L63.5162 303.879C40.9883 303.033 35.9078 302.43 30.5458 299.966C21.2501 295.695 16.2307 285.658 16.2307 271.343C16.2307 266.131 18.2687 244.673 19.0051 242.132C19.2921 241.141 18.9816 240.734 17.9396 240.734C15.7128 240.734 13.9238 238.151 13.9238 234.936C13.9238 231.793 20.3189 202.997 23.9893 189.613C31.3272 162.857 45.4332 147.807 69.6727 140.873C73.056 139.905 76.3348 138.954 76.9587 138.759C77.6505 138.543 76.4588 137.476 73.9049 136.025C66.1705 131.632 62.4859 126.342 61.8163 118.67C61.2495 112.178 62.524 106.965 67.0913 97.0966C74.4885 81.1129 76.3868 76.5884 81.6563 62.3807C84.5545 54.5665 88.321 45.4007 90.0263 42.0123C98.6626 24.8517 110.078 14.8691 125.858 10.6766C133.903 8.53938 147.826 8.53343 157.098 10.6634C178.944 15.6817 191.367 26.3449 198.051 45.8131C201.038 54.5157 201.419 60.5709 199.256 64.9747C197.698 68.1474 197.522 69.7885 197.335 82.9116C197.185 93.3794 196.571 101.33 195.103 111.788C192.02 133.76 190.483 138.643 184.888 144.237C181.723 147.401 174.55 151.252 171.796 151.265C168.927 151.278 169.247 152.414 172.588 154.076C176.816 156.179 185.904 165.7 189.117 171.392C192.517 177.416 196.929 190.673 200.028 204.173L202.545 215.138L248.636 215.355L294.727 215.573L296.273 217.558C297.393 218.995 297.72 220.317 297.456 222.35C297.173 224.533 291.662 240.582 288.108 249.575C287.695 250.619 289.503 251.253 298.983 253.39C305.237 254.799 310.761 255.943 311.26 255.932C311.758 255.92 314.18 254.67 316.642 253.154C322.982 249.251 327.331 248.185 332.179 249.348C335.428 250.127 336.568 250.064 339.346 248.954C341.615 248.048 345.059 247.631 350.339 247.622C357.385 247.611 358.813 247.891 367.399 250.962C372.553 252.805 377.256 254.313 377.849 254.313C378.442 254.313 379.29 253.488 379.732 252.48C380.384 250.994 382.22 250.158 389.459 248.053C404.178 243.774 427.73 235.968 432.015 233.95C434.222 232.91 437.817 230.327 440.004 228.21C447.865 220.599 461.042 201.026 472.708 179.633C476.456 172.759 481.36 164.808 483.606 161.963C490.138 153.688 500.065 146.87 511.425 142.856L516.413 141.093L513.236 140.536C500.25 138.257 488.957 125.773 483.494 107.659C478.037 89.5665 477.655 61.382 482.628 43.9031C483.243 41.7416 483.661 39.9444 483.557 39.9093C483.453 39.8742 481.637 38.9119 479.523 37.7709C473.984 34.7823 471.208 30.3841 470.866 24.0535C470.559 18.3779 471.985 14.6556 475.49 11.9863C477.415 10.5196 478.01 10.4554 482.026 11.2813C487.035 12.3116 488.509 12.1086 506.051 7.97385C512.607 6.42875 521.35 4.81288 525.48 4.38304C543.37 2.52137 560.157 7.53817 569.105 17.4206C570.585 19.0553 573.527 21.7586 575.641 23.428C583.435 29.5808 587.379 40.6835 586.462 53.8928C585.527 67.3638 580.254 85.3648 572.159 102.725C569.916 107.535 569.907 107.607 570.969 112.847C572.455 120.184 574.876 126.515 577.181 129.089C578.371 130.419 580.85 131.763 583.538 132.538C613.967 141.305 626.404 147.043 635.904 156.699C645.684 166.64 651.143 178.456 658.27 205.104C664.682 229.08 668.935 266.614 666.833 280.672C664.451 296.598 655.385 306.154 638.769 310.253C628.242 312.85 575.047 317.294 573.231 315.728C572.642 315.221 570.231 315.122 566.859 315.467C563.577 315.803 558.595 315.617 554.244 314.997L547.054 313.971L539.627 316.492C531.126 319.378 530.111 319.485 527.723 317.747C526.327 316.731 525.512 316.653 523.592 317.348C520.244 318.56 518.324 318.433 515.226 316.792C513.15 315.692 511.896 315.528 509.699 316.068C505.399 317.124 501.39 314.832 499.945 310.49C498.86 307.231 498.896 307.032 501.635 301.276C507.044 289.907 516.704 280.169 525.66 277.055C531.05 275.181 542.379 274.672 551.801 275.879C559.544 276.871 559.855 276.85 562.654 275.135C565.167 273.594 586.163 268.312 604.322 264.651C608.964 263.715 609.149 263.588 608.762 261.59C608.539 260.443 606.981 249.62 605.298 237.539C603.616 225.458 601.643 211.516 600.914 206.558C599.736 198.543 599.717 197.41 600.743 196.344C602.202 194.829 604.215 195.591 604.745 197.858C605.222 199.902 612.6 251.832 613.349 258.42L613.86 262.926L617.05 262.43C618.805 262.157 621.624 261.927 623.316 261.918C625.922 261.904 626.429 262.174 626.637 263.691C626.958 266.044 625.327 266.701 615.242 268.278C608.495 269.333 573.767 276.705 569.825 277.919C568.818 278.229 569.036 279.159 571.18 283.674C573.897 289.395 577.564 303.073 577.564 307.486C577.564 308.941 577.908 310.353 578.33 310.624C579.473 311.358 627.801 307.139 634.417 305.728C648.111 302.808 656.208 296.999 659.915 287.437C661.627 283.02 661.758 281.668 661.694 269.09C661.583 247.642 658.036 224.275 651.022 198.795C642.712 168.607 633.142 156.404 610.265 146.821C604.679 144.481 583.805 137.694 582.195 137.694C581.91 137.694 580.053 140.357 578.068 143.612C573.234 151.538 563.24 161.303 556.362 164.821C550.011 168.068 541.387 169.056 536.803 167.061C530.807 164.452 526.143 157.795 524.9 150.074C524.028 144.653 524.332 144.813 518.236 146.568C506.103 150.06 496.396 155.751 489.619 163.343C486.654 166.665 482.642 172.741 478.807 179.718C465.719 203.529 450.563 226.083 443.208 232.694C437.339 237.97 430.155 241.072 407.554 248.09L386.337 254.678L387.7 257.89C389.247 261.537 394.018 280.812 395.332 288.725L396.204 293.982L421.31 287.707C457.59 278.64 461.601 277.232 472.189 269.853C478.384 265.536 488.693 254.71 494.048 246.9L497.761 241.485L495.202 224.136C493.794 214.594 492.632 204.81 492.619 202.393C492.596 198.534 492.78 198 494.122 198C494.999 198 496.034 198.851 496.551 199.997C497.046 201.095 499.224 214.035 501.391 228.753C503.558 243.47 506.022 259.595 506.867 264.587C508.436 273.862 508.209 275.88 505.6 275.88C503.879 275.88 503.075 273.318 501.07 261.446C500.014 255.191 499.042 249.961 498.91 249.824C498.778 249.687 497.164 251.725 495.322 254.352C491.153 260.298 481.64 269.807 475.618 274.046C465.26 281.338 459.855 283.349 429.925 291.051C390.627 301.164 391.818 300.968 390.931 297.442C390.459 295.569 390.749 295.614 386.436 296.742C383.224 297.582 383.019 297.8 383.019 300.376C383.019 305.427 379.983 309.428 376.149 309.428C375.273 309.428 374.561 309.948 374.561 310.588C374.561 314.746 370.594 318.214 365.84 318.214C363.65 318.214 363.109 318.562 362.705 320.236C362.101 322.734 358.065 325.396 354.874 325.4C353.562 325.401 351.313 324.569 349.876 323.55L347.263 321.697L343.034 326.284C338.39 331.32 336.184 332.235 332.56 330.626Z" fill="#FEF3C7"/>
</g>
<g filter="url(#filter23_d_399_179)">
<path d="M340.703 321.363C343.944 317.318 344.448 316.27 343.78 314.973C342.364 312.225 339.609 313.078 336.186 317.326C333.289 320.92 332.224 324.291 333.551 325.669C334.939 327.111 337.179 325.762 340.703 321.363Z" fill="#701A75"/>
</g>
<g filter="url(#filter24_d_399_179)">
<path d="M328.167 318.414C333.865 312.081 335.642 309.297 334.836 307.961C333.139 305.148 331.077 305.977 326.602 311.271C322.633 315.967 321.452 318.693 322.785 320.078C323.902 321.238 326.29 320.5 328.167 318.414Z" fill="#701A75"/>
</g>
<g filter="url(#filter25_d_399_179)">
<path d="M357.491 318.852C359.352 316.919 358.276 314.797 351.878 307.784C348.283 303.844 345.341 300.157 345.341 299.592C345.341 298.391 346.865 296.647 347.914 296.647C348.313 296.647 352.137 300.196 356.41 304.533C364.646 312.892 365.7 313.626 367.833 312.486C370.578 311.02 369.214 308.542 360.653 299.441C351.931 290.169 350.704 287.751 354.441 287.198C355.831 286.993 358.123 288.886 364.927 295.859C373.884 305.039 375.296 305.808 377.333 302.616C378.223 301.222 378.163 300.648 376.907 298.503C375.245 295.663 362.264 283.411 354.068 276.947C346.101 270.663 345.014 270.649 336.112 276.724C327.249 282.773 323.528 283.645 320.409 280.406C318.868 278.805 318.428 277.551 318.428 274.755C318.428 272.779 318.841 270.156 319.345 268.928C320.732 265.55 326.693 256.941 328.611 255.545C330.275 254.334 330.257 254.312 327.599 254.312C325.76 254.312 323.06 255.458 319.162 257.894C316.009 259.863 312.685 261.481 311.775 261.488C310.864 261.495 304.713 260.243 298.105 258.706C291.497 257.168 285.965 255.91 285.81 255.91C285.656 255.91 285.305 256.84 285.031 257.976C284.756 259.113 282.419 265.949 279.836 273.168C277.253 280.387 275.372 286.534 275.655 286.829C275.939 287.123 282.408 289.032 290.033 291.071L303.895 294.777L306.74 292.539C311.816 288.546 316.585 288.89 319.744 293.478C320.256 294.222 322.159 295.037 323.973 295.29C326.342 295.62 327.864 296.438 329.375 298.195C330.532 299.54 331.916 300.642 332.451 300.644C334.221 300.648 338.438 303.801 339.298 305.76C339.852 307.023 341.024 307.859 342.696 308.185C345.406 308.713 349.186 312.595 349.186 314.85C349.186 316.541 352.958 319.745 354.992 319.782C355.859 319.797 356.983 319.38 357.491 318.852Z" fill="#701A75"/>
</g>
<g filter="url(#filter26_d_399_179)">
<path d="M321.448 309.429C326.447 303.586 327.109 301.246 323.896 300.772C322.562 300.575 321.058 301.536 318.269 304.366C313.596 309.109 312.134 311.759 313.15 313.646C314.501 316.152 316.616 315.077 321.448 309.429Z" fill="#701A75"/>
</g>
<g filter="url(#filter27_d_399_179)">
<path d="M539.231 311.333C545.885 308.662 546.765 308.497 551.035 309.124C557.417 310.061 571.183 309.998 572.058 309.028C573.099 307.874 569.743 293.281 566.982 286.956L564.698 281.723L554.791 281.04C535.824 279.731 528.174 280.643 521.517 285.008C514.9 289.347 504.219 304.333 504.683 308.628C504.855 310.224 505.383 310.674 507.316 310.869C509.521 311.092 509.943 310.734 512.103 306.813C517.301 297.375 528.498 287.265 531.186 289.582C532.904 291.063 532.301 292.97 529.486 294.962C526.095 297.361 517.755 306.569 516.611 309.178C515.56 311.574 516.71 312.592 520.488 312.61C522.607 312.621 524.162 311.492 530.307 305.482C534.322 301.555 538.31 298.111 539.168 297.828C540.768 297.3 542.961 298.593 542.961 300.063C542.961 300.517 540.193 303.559 536.809 306.824C528.084 315.245 528.333 315.709 539.231 311.333Z" fill="#701A75"/>
</g>
<g filter="url(#filter28_d_399_179)">
<path d="M311.738 303.907C315.584 299.485 316.448 297.621 315.31 296.197C313.815 294.326 311.704 294.869 308.392 297.977C304.36 301.761 303.53 303.386 304.586 305.434C305.905 307.994 308.703 307.397 311.738 303.907Z" fill="#701A75"/>
</g>
<g filter="url(#filter29_d_399_179)">
<path d="M261.21 304.875C263.035 303.787 265.192 298.664 272.919 277.078C275.906 268.731 281.485 253.181 285.317 242.524C289.148 231.866 292.283 222.611 292.283 221.956C292.283 220.916 287.034 220.756 250.952 220.697C185.628 220.589 181.304 220.67 180.309 222.016C179.836 222.657 176.418 232.252 172.714 243.34C163.036 272.313 154.55 296.072 153.421 297.36C152.615 298.278 147.17 298.445 122.039 298.322L91.6333 298.174L91.1575 300.143C90.2193 304.026 90.9332 305.002 95.0538 305.47C97.1647 305.71 135.052 305.889 179.247 305.869C240.273 305.843 259.989 305.602 261.21 304.875Z" fill="#701A75"/>
</g>
<g filter="url(#filter30_d_399_179)">
<path d="M85.9618 297.646C87.4169 293.384 86.9966 293.453 111.7 293.453C124.322 293.453 134.636 293.183 134.619 292.854C134.602 292.524 133.045 291.075 131.159 289.633C127.664 286.963 126.736 284.434 128.931 283.559C130.574 282.904 133.639 284.677 138.158 288.896C140.246 290.846 143.071 292.695 144.436 293.006C147.045 293.601 150.028 293.004 150.028 291.888C150.028 290.524 142.856 283.013 139.21 280.56C135.38 277.982 134.284 275.483 136.581 274.568C138.437 273.828 145.496 277.881 149.22 281.826L152.641 285.45L154.013 281.694L155.386 277.937L153.284 275.61C146.391 267.977 134.209 267.554 118.243 274.393C111.97 277.08 115.439 277.445 81.5916 270.54C69.5383 268.081 59.2043 265.616 58.6271 265.063C57.7428 264.216 57.8544 262.411 59.3362 253.599C60.3035 247.846 60.9282 242.967 60.7244 242.755C60.5207 242.543 56.8444 241.793 52.555 241.087C42.8262 239.486 25.7674 239.715 24.7314 241.46C23.4557 243.609 21.998 258.77 21.998 269.889C21.998 279.872 22.1892 281.511 23.7793 285.16C26.8654 292.243 31.649 295.846 39.6042 297.079C43.6011 297.699 64.3995 298.706 77.5788 298.917C84.4802 299.028 85.5453 298.867 85.9618 297.646Z" fill="#701A75"/>
</g>
<g filter="url(#filter31_d_399_179)">
<path d="M385.954 291.425C388.923 290.509 389.939 289.813 389.939 288.693C389.939 286.916 384.32 263.66 383.141 260.558C382.396 258.596 382.141 258.488 380.129 259.277C378.258 260.011 376.45 259.624 367.979 256.678C350.979 250.766 341.184 251.472 332.711 259.219C326.383 265.005 321.803 273.768 323.799 276.267C325.016 277.79 326.989 276.931 334.427 271.639C341.143 266.862 344.143 265.898 348.507 267.119C352.13 268.132 360.751 274.82 371.484 284.943C375.925 289.132 380.101 292.58 380.764 292.606C381.427 292.632 383.763 292.101 385.954 291.425Z" fill="#701A75"/>
</g>
<g filter="url(#filter32_d_399_179)">
<path d="M117.866 268.75C120.964 267.465 126.411 265.803 129.97 265.057C138.799 263.206 144.289 263.804 150.927 267.342L156.117 270.108L156.896 267.602C158.762 261.594 165.362 232.47 166.188 226.597C166.869 221.761 166.885 217.745 166.252 210.534C165.057 196.934 165.137 192.866 166.612 192.278C169.344 191.189 170.191 194.604 171.578 212.305C172.165 219.797 172.149 223.801 171.521 226.946C170.193 233.587 171.133 232.763 173.364 225.328C176.162 216.007 176.558 215.731 187.742 215.317C192.798 215.13 196.933 214.751 196.932 214.476C196.927 213.157 192.059 194.066 190.288 188.415C184.118 168.734 173.952 158.221 154.766 151.682C151.239 150.48 148.086 149.807 147.758 150.185C147.43 150.564 146.755 152.613 146.259 154.739C144.151 163.775 139.444 169.975 133.22 171.912C129.574 173.047 122.366 173.081 117.79 171.986C107.44 169.507 96.9217 160.697 90.4414 149.076C88.0663 144.817 86.2943 142.486 85.4311 142.486C84.6966 142.486 80.8505 143.344 76.8842 144.391C50.5884 151.337 38.1588 162.636 30.4705 186.581C27.7478 195.061 19.3066 230.619 19.3066 233.609C19.3066 235.102 19.7397 235.144 29.8797 234.644C40.7377 234.109 51.6175 234.982 61.9057 237.215C64.8235 237.848 67.2913 238.27 67.3898 238.152C67.4883 238.035 68.6737 229.132 70.024 218.369C71.3742 207.605 72.7918 197.99 73.1741 197.002C73.9819 194.913 76.7937 194.575 77.4983 196.483C78.1519 198.252 72.4331 242.48 71.3803 243.798C70.8579 244.452 69.7043 244.694 68.4003 244.424C66.0329 243.932 66.4009 242.94 64.3844 255.245L63.3807 261.369L86.5195 266.151C99.2457 268.781 110.238 270.967 110.946 271.01C111.654 271.052 114.768 270.035 117.866 268.75Z" fill="#701A75"/>
</g>
<g filter="url(#filter33_d_399_179)">
<path d="M133.939 165.432C135.366 164.433 137.273 162.476 138.177 161.083C139.64 158.827 143.106 146.699 143.106 143.835C143.106 143.227 141.644 142.046 139.857 141.21C135.202 139.034 127.953 133.303 127.347 131.319C126.863 129.733 128.002 127.31 129.233 127.31C129.535 127.31 131.9 129.076 134.488 131.234C142.768 138.136 151.522 140.081 161.797 137.301C174.837 133.773 183.754 124.643 188.093 110.374C192.55 95.7178 193.536 70.6684 190.098 59.4154C188.523 54.2571 184.641 47.4015 180.967 43.2888L179.048 41.1406L175.244 45.4649C168.822 52.7633 155.44 60.7851 143.875 64.2677C141.972 64.8408 139.437 66.1396 138.243 67.1538C135.033 69.8791 125.199 74.5918 122.723 74.5918C121.195 74.5918 119.391 73.4332 116.505 70.598C111.88 66.0539 109.286 65.5055 105.819 68.3386C101.117 72.1809 99.4525 81.3849 102.287 87.8696C103.891 91.5379 107.952 95.2893 111.763 96.622C113.667 97.288 114.271 97.9627 114.271 99.4247C114.271 100.932 113.811 101.405 112.156 101.603C110.993 101.742 110.033 102.281 110.023 102.801C109.89 109.721 108.292 123.691 107.232 127.2C105.54 132.802 100.216 138.696 95.5276 140.155C93.7829 140.698 92.3555 141.324 92.3555 141.548C92.3555 143.113 99.9577 154.107 103.333 157.423C110.177 164.147 117.01 167.108 125.883 167.195C130.345 167.238 131.819 166.916 133.939 165.432Z" fill="#701A75"/>
</g>
<g filter="url(#filter34_d_399_179)">
<path d="M157.558 121.458C153.988 120.284 148.231 116.081 146.556 113.425C145.067 111.065 145.657 108.14 147.622 108.14C148.356 108.14 150.15 109.442 151.607 111.033C156.468 116.34 163.072 118.195 169.076 115.94C171.412 115.063 171.819 115.122 172.777 116.483C175.74 120.693 165.457 124.054 157.558 121.458Z" fill="#FEF3C7"/>
</g>
<g filter="url(#filter35_d_399_179)">
<path d="M165.353 103.679C164.621 102.763 164.564 102.047 165.147 101.083C165.761 100.069 167.35 99.6968 171.831 99.519C175.064 99.3907 177.709 99.1709 177.709 99.0305C177.709 98.8901 176.303 95.6586 174.585 91.8494C171.094 84.111 170.833 80.7456 173.69 80.3244C175.168 80.1065 175.734 80.7844 177.358 84.7176C178.414 87.2755 180.395 91.606 181.761 94.3408C184.589 100.001 184.351 101.216 179.959 103.545C176.426 105.418 166.813 105.507 165.353 103.679Z" fill="#FEF3C7"/>
</g>
<g filter="url(#filter36_d_399_179)">
<path d="M180.528 81.2482C180.246 80.9553 180.016 79.5258 180.016 78.0716C180.016 76.1326 180.528 75.0785 181.938 74.119C183.719 72.9069 184.002 72.9069 185.783 74.119C189.31 76.5195 187.795 81.7807 183.577 81.7807C182.182 81.7807 180.81 81.5411 180.528 81.2482Z" fill="#FEF3C7"/>
</g>
<g filter="url(#filter37_d_399_179)">
<path d="M154.025 79.2245C151.483 76.5841 154.489 71.5817 158.058 72.5123C162.049 73.5529 161.199 80.183 157.074 80.183C155.905 80.183 154.533 79.7517 154.025 79.2245Z" fill="#FEF3C7"/>
</g>
<g filter="url(#filter38_d_399_179)">
<path d="M550.108 161.714C559.183 158.47 568.944 149.421 574.882 138.746L576.297 136.203L573.563 133.059C570.021 128.987 567.972 123.152 565.468 110.012C563.464 99.4959 563.409 99.3535 561.367 99.3535C558.971 99.3535 557.327 97.6652 557.71 95.5978C557.894 94.6015 558.915 94.0243 561.041 93.7133C569.171 92.5246 574.479 85.9181 574.479 76.9882C574.479 72.2081 573.035 68.4451 570.213 65.8712C565.44 61.5178 561.836 62.8378 555.968 71.0886C552.544 75.9037 550.787 76.4385 548.465 73.3721C546.041 70.1717 542.24 58.2632 540.974 49.906C539.565 40.6041 538.206 37.5418 534.729 35.8275C531.392 34.1827 527.994 34.5852 512.587 38.4505C504.378 40.5102 499.231 41.3586 494.731 41.3938L488.408 41.4433L486.784 48.6163C481.689 71.1302 484.71 102.843 493.423 118.307C498.834 127.91 508.257 134.908 517.048 135.85C522.364 136.42 529.595 135.041 535.436 132.342C540.183 130.15 542.192 130.312 542.192 132.888C542.192 134.927 538.798 137.142 532.826 139L528.337 140.397L528.797 143.239C530.942 156.469 535.81 163.123 543.417 163.223C544.726 163.24 547.736 162.561 550.108 161.714Z" fill="#701A75"/>
</g>
<g filter="url(#filter39_d_399_179)">
<path d="M506.051 115.093C504.782 114.426 504.129 113.413 504.129 112.11C504.129 110.15 504.172 110.138 510.376 110.418C517.783 110.751 521.299 109.452 527.092 104.241C530.968 100.756 531.915 100.53 533.273 102.767C534.972 105.566 527.055 112.645 519.681 114.92C514.933 116.385 508.661 116.464 506.051 115.093Z" fill="#FEF3C7"/>
</g>
<g filter="url(#filter40_d_399_179)">
<path d="M499.131 98.7868C497.204 98.0508 495.287 95.9852 495.279 94.6368C495.26 91.6042 501.842 67.9909 502.812 67.6041C503.391 67.3734 504.443 67.7858 505.15 68.5207C506.352 69.7697 506.267 70.5198 503.846 80.0123C502.421 85.5978 501.086 90.9607 500.879 91.9298C500.519 93.6158 500.763 93.702 506.537 93.9267C511.794 94.1313 512.608 94.3605 512.856 95.7063C513.313 98.1919 510.861 99.3596 505.328 99.2905C502.554 99.2557 499.766 99.0291 499.131 98.7868Z" fill="#FEF3C7"/>
</g>
<g filter="url(#filter41_d_399_179)">
<path d="M489.903 73.7924C487.172 70.9552 488.492 66.6035 492.084 66.6035C494.893 66.6035 496.055 67.9416 496.055 71.1762C496.055 73.292 495.654 73.9903 494.083 74.6109C491.532 75.6183 491.691 75.6496 489.903 73.7924Z" fill="#FEF3C7"/>
</g>
<g filter="url(#filter42_d_399_179)">
<path d="M517.933 71.8492C516.521 69.6097 517.311 67.2402 519.962 65.7665C522.078 64.5901 525.275 66.7129 525.275 69.294C525.275 73.4627 520.089 75.2676 517.933 71.8492Z" fill="#FEF3C7"/>
</g>
<g filter="url(#filter43_d_399_179)">
<path d="M275.44 176.621C274.424 176.079 272.866 174.62 271.98 173.38C270.396 171.166 270.364 170.363 270.156 128.05C269.924 80.6779 269.846 81.5366 274.572 78.9981C277.975 77.1699 391.944 77.1699 395.347 78.9981C400.007 81.5014 399.936 80.7415 399.936 127.709C399.936 175.039 400.054 173.858 395.047 176.326C392.668 177.499 386.535 177.631 334.843 177.62C290.694 177.611 276.858 177.378 275.44 176.621Z" fill="#C026D3"/>
</g>
<g filter="url(#filter44_d_399_179)">
<path d="M393.344 170.785C394.375 169.715 394.56 166.629 394.6 149.818C394.713 103.134 394.454 85.4154 393.648 84.4057C392.992 83.5845 381.195 83.3779 334.959 83.3779C282.427 83.3779 276.996 83.4979 276.052 84.6789C274.47 86.6599 274.984 167.64 276.595 170.243L277.708 172.041H334.922C385.91 172.041 392.268 171.904 393.344 170.785Z" fill="#701A75"/>
</g>
<g filter="url(#filter45_d_399_179)">
<path d="M326.235 152.317C325.7 151.325 327.345 145.323 332.419 129.752C340.388 105.3 342.706 99.7529 344.957 99.7529C347.479 99.7529 347.203 102.638 343.756 112.296C341.984 117.259 338.482 127.789 335.975 135.697C333.467 143.605 330.907 150.884 330.286 151.872C328.947 154.006 327.245 154.193 326.235 152.317Z" fill="#C026D3"/>
</g>
<g filter="url(#filter46_d_399_179)">
<path d="M356.65 146.78C355.137 145.208 356.811 142.739 364.353 135.423L372.601 127.421L364.297 118.576C355.977 109.713 355.093 108.026 357.83 106.236C358.97 105.49 360.496 106.73 368.045 114.537C372.926 119.585 377.118 124.524 377.361 125.512C378.219 129.006 376.815 131.11 368.395 138.953C360.331 146.464 357.903 148.082 356.65 146.78Z" fill="#C026D3"/>
</g>
<g filter="url(#filter47_d_399_179)">
<path d="M310.188 143.939C302.936 137.608 294.59 128.457 294.59 126.836C294.59 125.897 295.305 124.185 296.178 123.032C298.407 120.089 314.591 105.743 315.682 105.743C316.855 105.743 318.427 107.396 318.427 108.63C318.427 109.164 314.275 113.315 309.2 117.856C304.125 122.396 299.973 126.36 299.973 126.664C299.973 126.968 303.779 130.722 308.431 135.006C313.083 139.29 316.889 143.192 316.889 143.679C316.889 144.871 315.271 146.48 314.071 146.48C313.536 146.48 311.789 145.337 310.188 143.939Z" fill="#C026D3"/>
</g>
<g filter="url(#filter48_d_399_179)">
<path d="M399.936 38.6067C387.523 36.7146 362.86 35.9541 309.969 35.8324L253.451 35.7024V33.79C253.451 32.1212 253.941 31.7882 257.296 31.1759C263.384 30.0648 356.376 30.2028 374.945 31.3506C391.074 32.3475 403.357 33.5133 406.577 34.353C408.651 34.8937 409.505 36.8582 408.314 38.3492C407.358 39.5448 406.304 39.5772 399.936 38.6067Z" fill="#C026D3"/>
</g>
<defs>
<filter id="filter0_d_399_179" x="0" y="334.304" width="294.361" height="319.168" filterUnits="userSpaceOnUse" color-interpolation-filters="sRGB">
<feFlood flood-opacity="0" result="BackgroundImageFix"/>
<feColorMatrix in="SourceAlpha" type="matrix" values="0 0 0 0 0 0 0 0 0 0 0 0 0 0 0 0 0 0 127 0" result="hardAlpha"/>
<feOffset dy="4"/>
<feGaussianBlur stdDeviation="2"/>
<feComposite in2="hardAlpha" operator="out"/>
<feColorMatrix type="matrix" values="0 0 0 0 0 0 0 0 0 1 0 0 0 0 0.88 0 0 0 0.5 0"/>
<feBlend mode="normal" in2="BackgroundImageFix" result="effect1_dropShadow_399_179"/>
<feBlend mode="normal" in="SourceGraphic" in2="effect1_dropShadow_399_179" result="shape"/>
</filter>
<filter id="filter1_d_399_179" x="99.998" y="588.29" width="118.426" height="60.1973" filterUnits="userSpaceOnUse" color-interpolation-filters="sRGB">
<feFlood flood-opacity="0" result="BackgroundImageFix"/>
<feColorMatrix in="SourceAlpha" type="matrix" values="0 0 0 0 0 0 0 0 0 0 0 0 0 0 0 0 0 0 127 0" result="hardAlpha"/>
<feOffset dy="4"/>
<feGaussianBlur stdDeviation="2"/>
<feComposite in2="hardAlpha" operator="out"/>
<feColorMatrix type="matrix" values="0 0 0 0 0 0 0 0 0 1 0 0 0 0 0.88 0 0 0 0.5 0"/>
<feBlend mode="normal" in2="BackgroundImageFix" result="effect1_dropShadow_399_179"/>
<feBlend mode="normal" in="SourceGraphic" in2="effect1_dropShadow_399_179" result="shape"/>
</filter>
<filter id="filter2_d_399_179" x="213.996" y="584.697" width="75.2578" height="52.2412" filterUnits="userSpaceOnUse" color-interpolation-filters="sRGB">
<feFlood flood-opacity="0" result="BackgroundImageFix"/>
<feColorMatrix in="SourceAlpha" type="matrix" values="0 0 0 0 0 0 0 0 0 0 0 0 0 0 0 0 0 0 127 0" result="hardAlpha"/>
<feOffset dy="4"/>
<feGaussianBlur stdDeviation="2"/>
<feComposite in2="hardAlpha" operator="out"/>
<feColorMatrix type="matrix" values="0 0 0 0 0 0 0 0 0 1 0 0 0 0 0.88 0 0 0 0.5 0"/>
<feBlend mode="normal" in2="BackgroundImageFix" result="effect1_dropShadow_399_179"/>
<feBlend mode="normal" in="SourceGraphic" in2="effect1_dropShadow_399_179" result="shape"/>
</filter>
<filter id="filter3_d_399_179" x="85.2715" y="370.758" width="117.678" height="131.983" filterUnits="userSpaceOnUse" color-interpolation-filters="sRGB">
<feFlood flood-opacity="0" result="BackgroundImageFix"/>
<feColorMatrix in="SourceAlpha" type="matrix" values="0 0 0 0 0 0 0 0 0 0 0 0 0 0 0 0 0 0 127 0" result="hardAlpha"/>
<feOffset dy="4"/>
<feGaussianBlur stdDeviation="2"/>
<feComposite in2="hardAlpha" operator="out"/>
<feColorMatrix type="matrix" values="0 0 0 0 0 0 0 0 0 1 0 0 0 0 0.88 0 0 0 0.5 0"/>
<feBlend mode="normal" in2="BackgroundImageFix" result="effect1_dropShadow_399_179"/>
<feBlend mode="normal" in="SourceGraphic" in2="effect1_dropShadow_399_179" result="shape"/>
</filter>
<filter id="filter4_d_399_179" x="165.273" y="395.694" width="16.4355" height="16.8613" filterUnits="userSpaceOnUse" color-interpolation-filters="sRGB">
<feFlood flood-opacity="0" result="BackgroundImageFix"/>
<feColorMatrix in="SourceAlpha" type="matrix" values="0 0 0 0 0 0 0 0 0 0 0 0 0 0 0 0 0 0 127 0" result="hardAlpha"/>
<feOffset dy="4"/>
<feGaussianBlur stdDeviation="2"/>
<feComposite in2="hardAlpha" operator="out"/>
<feColorMatrix type="matrix" values="0 0 0 0 0 0 0 0 0 1 0 0 0 0 0.88 0 0 0 0.5 0"/>
<feBlend mode="normal" in2="BackgroundImageFix" result="effect1_dropShadow_399_179"/>
<feBlend mode="normal" in="SourceGraphic" in2="effect1_dropShadow_399_179" result="shape"/>
</filter>
<filter id="filter5_d_399_179" x="162.73" y="447.15" width="21.4473" height="16.3887" filterUnits="userSpaceOnUse" color-interpolation-filters="sRGB">
<feFlood flood-opacity="0" result="BackgroundImageFix"/>
<feColorMatrix in="SourceAlpha" type="matrix" values="0 0 0 0 0 0 0 0 0 0 0 0 0 0 0 0 0 0 127 0" result="hardAlpha"/>
<feOffset dy="4"/>
<feGaussianBlur stdDeviation="2"/>
<feComposite in2="hardAlpha" operator="out"/>
<feColorMatrix type="matrix" values="0 0 0 0 0 0 0 0 0 1 0 0 0 0 0.88 0 0 0 0.5 0"/>
<feBlend mode="normal" in2="BackgroundImageFix" result="effect1_dropShadow_399_179"/>
<feBlend mode="normal" in="SourceGraphic" in2="effect1_dropShadow_399_179" result="shape"/>
</filter>
<filter id="filter6_d_399_179" x="293.428" y="327.997" width="384.982" height="321.709" filterUnits="userSpaceOnUse" color-interpolation-filters="sRGB">
<feFlood flood-opacity="0" result="BackgroundImageFix"/>
<feColorMatrix in="SourceAlpha" type="matrix" values="0 0 0 0 0 0 0 0 0 0 0 0 0 0 0 0 0 0 127 0" result="hardAlpha"/>
<feOffset/>
<feGaussianBlur stdDeviation="2"/>
<feComposite in2="hardAlpha" operator="out"/>
<feColorMatrix type="matrix" values="0 0 0 0 0.752941 0 0 0 0 0.14902 0 0 0 0 0.827451 0 0 0 0.5 0"/>
<feBlend mode="normal" in2="BackgroundImageFix" result="effect1_dropShadow_399_179"/>
<feBlend mode="normal" in="SourceGraphic" in2="effect1_dropShadow_399_179" result="shape"/>
</filter>
<filter id="filter7_d_399_179" x="298.57" y="525.087" width="223.398" height="118.912" filterUnits="userSpaceOnUse" color-interpolation-filters="sRGB">
<feFlood flood-opacity="0" result="BackgroundImageFix"/>
<feColorMatrix in="SourceAlpha" type="matrix" values="0 0 0 0 0 0 0 0 0 0 0 0 0 0 0 0 0 0 127 0" result="hardAlpha"/>
<feOffset/>
<feGaussianBlur stdDeviation="2"/>
<feComposite in2="hardAlpha" operator="out"/>
<feColorMatrix type="matrix" values="0 0 0 0 0.752941 0 0 0 0 0.14902 0 0 0 0 0.827451 0 0 0 0.5 0"/>
<feBlend mode="normal" in2="BackgroundImageFix" result="effect1_dropShadow_399_179"/>
<feBlend mode="normal" in="SourceGraphic" in2="effect1_dropShadow_399_179" result="shape"/>
</filter>
<filter id="filter8_d_399_179" x="359.795" y="572.294" width="26.4512" height="28.7314" filterUnits="userSpaceOnUse" color-interpolation-filters="sRGB">
<feFlood flood-opacity="0" result="BackgroundImageFix"/>
<feColorMatrix in="SourceAlpha" type="matrix" values="0 0 0 0 0 0 0 0 0 0 0 0 0 0 0 0 0 0 127 0" result="hardAlpha"/>
<feOffset/>
<feGaussianBlur stdDeviation="2"/>
<feComposite in2="hardAlpha" operator="out"/>
<feColorMatrix type="matrix" values="0 0 0 0 0.752941 0 0 0 0 0.14902 0 0 0 0 0.827451 0 0 0 0.5 0"/>
<feBlend mode="normal" in2="BackgroundImageFix" result="effect1_dropShadow_399_179"/>
<feBlend mode="normal" in="SourceGraphic" in2="effect1_dropShadow_399_179" result="shape"/>
</filter>
<filter id="filter9_d_399_179" x="443.328" y="469.013" width="229.955" height="173.182" filterUnits="userSpaceOnUse" color-interpolation-filters="sRGB">
<feFlood flood-opacity="0" result="BackgroundImageFix"/>
<feColorMatrix in="SourceAlpha" type="matrix" values="0 0 0 0 0 0 0 0 0 0 0 0 0 0 0 0 0 0 127 0" result="hardAlpha"/>
<feOffset/>
<feGaussianBlur stdDeviation="2"/>
<feComposite in2="hardAlpha" operator="out"/>
<feColorMatrix type="matrix" values="0 0 0 0 0.752941 0 0 0 0 0.14902 0 0 0 0 0.827451 0 0 0 0.5 0"/>
<feBlend mode="normal" in2="BackgroundImageFix" result="effect1_dropShadow_399_179"/>
<feBlend mode="normal" in="SourceGraphic" in2="effect1_dropShadow_399_179" result="shape"/>
</filter>
<filter id="filter10_d_399_179" x="476.588" y="599.004" width="85.9785" height="38.7207" filterUnits="userSpaceOnUse" color-interpolation-filters="sRGB">
<feFlood flood-opacity="0" result="BackgroundImageFix"/>
<feColorMatrix in="SourceAlpha" type="matrix" values="0 0 0 0 0 0 0 0 0 0 0 0 0 0 0 0 0 0 127 0" result="hardAlpha"/>
<feOffset/>
<feGaussianBlur stdDeviation="2"/>
<feComposite in2="hardAlpha" operator="out"/>
<feColorMatrix type="matrix" values="0 0 0 0 0.752941 0 0 0 0 0.14902 0 0 0 0 0.827451 0 0 0 0.5 0"/>
<feBlend mode="normal" in2="BackgroundImageFix" result="effect1_dropShadow_399_179"/>
<feBlend mode="normal" in="SourceGraphic" in2="effect1_dropShadow_399_179" result="shape"/>
</filter>
<filter id="filter11_d_399_179" x="485.188" y="360.6" width="109.479" height="142.074" filterUnits="userSpaceOnUse" color-interpolation-filters="sRGB">
<feFlood flood-opacity="0" result="BackgroundImageFix"/>
<feColorMatrix in="SourceAlpha" type="matrix" values="0 0 0 0 0 0 0 0 0 0 0 0 0 0 0 0 0 0 127 0" result="hardAlpha"/>
<feOffset/>
<feGaussianBlur stdDeviation="2"/>
<feComposite in2="hardAlpha" operator="out"/>
<feColorMatrix type="matrix" values="0 0 0 0 0.752941 0 0 0 0 0.14902 0 0 0 0 0.827451 0 0 0 0.5 0"/>
<feBlend mode="normal" in2="BackgroundImageFix" result="effect1_dropShadow_399_179"/>
<feBlend mode="normal" in="SourceGraphic" in2="effect1_dropShadow_399_179" result="shape"/>
</filter>
<filter id="filter12_d_399_179" x="501.383" y="430.179" width="38.5215" height="19.7754" filterUnits="userSpaceOnUse" color-interpolation-filters="sRGB">
<feFlood flood-opacity="0" result="BackgroundImageFix"/>
<feColorMatrix in="SourceAlpha" type="matrix" values="0 0 0 0 0 0 0 0 0 0 0 0 0 0 0 0 0 0 127 0" result="hardAlpha"/>
<feOffset/>
<feGaussianBlur stdDeviation="2"/>
<feComposite in2="hardAlpha" operator="out"/>
<feColorMatrix type="matrix" values="0 0 0 0 0.752941 0 0 0 0 0.14902 0 0 0 0 0.827451 0 0 0 0.5 0"/>
<feBlend mode="normal" in2="BackgroundImageFix" result="effect1_dropShadow_399_179"/>
<feBlend mode="normal" in="SourceGraphic" in2="effect1_dropShadow_399_179" result="shape"/>
</filter>
<filter id="filter13_d_399_179" x="493.207" y="396.013" width="24.7988" height="37.9375" filterUnits="userSpaceOnUse" color-interpolation-filters="sRGB">
<feFlood flood-opacity="0" result="BackgroundImageFix"/>
<feColorMatrix in="SourceAlpha" type="matrix" values="0 0 0 0 0 0 0 0 0 0 0 0 0 0 0 0 0 0 127 0" result="hardAlpha"/>
<feOffset/>
<feGaussianBlur stdDeviation="2"/>
<feComposite in2="hardAlpha" operator="out"/>
<feColorMatrix type="matrix" values="0 0 0 0 0.752941 0 0 0 0 0.14902 0 0 0 0 0.827451 0 0 0 0.5 0"/>
<feBlend mode="normal" in2="BackgroundImageFix" result="effect1_dropShadow_399_179"/>
<feBlend mode="normal" in="SourceGraphic" in2="effect1_dropShadow_399_179" result="shape"/>
</filter>
<filter id="filter14_d_399_179" x="489.174" y="393.439" width="15.4941" height="16.6279" filterUnits="userSpaceOnUse" color-interpolation-filters="sRGB">
<feFlood flood-opacity="0" result="BackgroundImageFix"/>
<feColorMatrix in="SourceAlpha" type="matrix" values="0 0 0 0 0 0 0 0 0 0 0 0 0 0 0 0 0 0 127 0" result="hardAlpha"/>
<feOffset/>
<feGaussianBlur stdDeviation="2"/>
<feComposite in2="hardAlpha" operator="out"/>
<feColorMatrix type="matrix" values="0 0 0 0 0.752941 0 0 0 0 0.14902 0 0 0 0 0.827451 0 0 0 0.5 0"/>
<feBlend mode="normal" in2="BackgroundImageFix" result="effect1_dropShadow_399_179"/>
<feBlend mode="normal" in="SourceGraphic" in2="effect1_dropShadow_399_179" result="shape"/>
</filter>
<filter id="filter15_d_399_179" x="518.486" y="394.126" width="15.9668" height="15.873" filterUnits="userSpaceOnUse" color-interpolation-filters="sRGB">
<feFlood flood-opacity="0" result="BackgroundImageFix"/>
<feColorMatrix in="SourceAlpha" type="matrix" values="0 0 0 0 0 0 0 0 0 0 0 0 0 0 0 0 0 0 127 0" result="hardAlpha"/>
<feOffset/>
<feGaussianBlur stdDeviation="2"/>
<feComposite in2="hardAlpha" operator="out"/>
<feColorMatrix type="matrix" values="0 0 0 0 0.752941 0 0 0 0 0.14902 0 0 0 0 0.827451 0 0 0 0.5 0"/>
<feBlend mode="normal" in2="BackgroundImageFix" result="effect1_dropShadow_399_179"/>
<feBlend mode="normal" in="SourceGraphic" in2="effect1_dropShadow_399_179" result="shape"/>
</filter>
<filter id="filter16_d_399_179" x="1.80273" y="312.217" width="39.5391" height="144.926" filterUnits="userSpaceOnUse" color-interpolation-filters="sRGB">
<feFlood flood-opacity="0" result="BackgroundImageFix"/>
<feColorMatrix in="SourceAlpha" type="matrix" values="0 0 0 0 0 0 0 0 0 0 0 0 0 0 0 0 0 0 127 0" result="hardAlpha"/>
<feOffset/>
<feGaussianBlur stdDeviation="2"/>
<feComposite in2="hardAlpha" operator="out"/>
<feColorMatrix type="matrix" values="0 0 0 0 0.752941 0 0 0 0 0.14902 0 0 0 0 0.827451 0 0 0 0.5 0"/>
<feBlend mode="normal" in2="BackgroundImageFix" result="effect1_dropShadow_399_179"/>
<feBlend mode="normal" in="SourceGraphic" in2="effect1_dropShadow_399_179" result="shape"/>
</filter>
<filter id="filter17_d_399_179" x="264.445" y="334.468" width="178.641" height="120.386" filterUnits="userSpaceOnUse" color-interpolation-filters="sRGB">
<feFlood flood-opacity="0" result="BackgroundImageFix"/>
<feColorMatrix in="SourceAlpha" type="matrix" values="0 0 0 0 0 0 0 0 0 0 0 0 0 0 0 0 0 0 127 0" result="hardAlpha"/>
<feOffset/>
<feGaussianBlur stdDeviation="2"/>
<feComposite in2="hardAlpha" operator="out"/>
<feColorMatrix type="matrix" values="0 0 0 0 0.752941 0 0 0 0 0.14902 0 0 0 0 0.827451 0 0 0 0.5 0"/>
<feBlend mode="normal" in2="BackgroundImageFix" result="effect1_dropShadow_399_179"/>
<feBlend mode="normal" in="SourceGraphic" in2="effect1_dropShadow_399_179" result="shape"/>
</filter>
<filter id="filter18_d_399_179" x="362.102" y="407.18" width="23.9609" height="24.6885" filterUnits="userSpaceOnUse" color-interpolation-filters="sRGB">
<feFlood flood-opacity="0" result="BackgroundImageFix"/>
<feColorMatrix in="SourceAlpha" type="matrix" values="0 0 0 0 0 0 0 0 0 0 0 0 0 0 0 0 0 0 127 0" result="hardAlpha"/>
<feOffset/>
<feGaussianBlur stdDeviation="2"/>
<feComposite in2="hardAlpha" operator="out"/>
<feColorMatrix type="matrix" values="0 0 0 0 0.752941 0 0 0 0 0.14902 0 0 0 0 0.827451 0 0 0 0.5 0"/>
<feBlend mode="normal" in2="BackgroundImageFix" result="effect1_dropShadow_399_179"/>
<feBlend mode="normal" in="SourceGraphic" in2="effect1_dropShadow_399_179" result="shape"/>
</filter>
<filter id="filter19_d_399_179" x="313.658" y="383.686" width="24.1484" height="24.8076" filterUnits="userSpaceOnUse" color-interpolation-filters="sRGB">
<feFlood flood-opacity="0" result="BackgroundImageFix"/>
<feColorMatrix in="SourceAlpha" type="matrix" values="0 0 0 0 0 0 0 0 0 0 0 0 0 0 0 0 0 0 127 0" result="hardAlpha"/>
<feOffset/>
<feGaussianBlur stdDeviation="2"/>
<feComposite in2="hardAlpha" operator="out"/>
<feColorMatrix type="matrix" values="0 0 0 0 0.752941 0 0 0 0 0.14902 0 0 0 0 0.827451 0 0 0 0.5 0"/>
<feBlend mode="normal" in2="BackgroundImageFix" result="effect1_dropShadow_399_179"/>
<feBlend mode="normal" in="SourceGraphic" in2="effect1_dropShadow_399_179" result="shape"/>
</filter>
<filter id="filter20_d_399_179" x="414.004" y="339.775" width="24.4551" height="24.7734" filterUnits="userSpaceOnUse" color-interpolation-filters="sRGB">
<feFlood flood-opacity="0" result="BackgroundImageFix"/>
<feColorMatrix in="SourceAlpha" type="matrix" values="0 0 0 0 0 0 0 0 0 0 0 0 0 0 0 0 0 0 127 0" result="hardAlpha"/>
<feOffset/>
<feGaussianBlur stdDeviation="2"/>
<feComposite in2="hardAlpha" operator="out"/>
<feColorMatrix type="matrix" values="0 0 0 0 0.752941 0 0 0 0 0.14902 0 0 0 0 0.827451 0 0 0 0.5 0"/>
<feBlend mode="normal" in2="BackgroundImageFix" result="effect1_dropShadow_399_179"/>
<feBlend mode="normal" in="SourceGraphic" in2="effect1_dropShadow_399_179" result="shape"/>
</filter>
<filter id="filter21_d_399_179" x="645.006" y="310.35" width="31.8984" height="132.427" filterUnits="userSpaceOnUse" color-interpolation-filters="sRGB">
<feFlood flood-opacity="0" result="BackgroundImageFix"/>
<feColorMatrix in="SourceAlpha" type="matrix" values="0 0 0 0 0 0 0 0 0 0 0 0 0 0 0 0 0 0 127 0" result="hardAlpha"/>
<feOffset/>
<feGaussianBlur stdDeviation="2"/>
<feComposite in2="hardAlpha" operator="out"/>
<feColorMatrix type="matrix" values="0 0 0 0 0.752941 0 0 0 0 0.14902 0 0 0 0 0.827451 0 0 0 0.5 0"/>
<feBlend mode="normal" in2="BackgroundImageFix" result="effect1_dropShadow_399_179"/>
<feBlend mode="normal" in="SourceGraphic" in2="effect1_dropShadow_399_179" result="shape"/>
</filter>
<filter id="filter22_d_399_179" x="9.92383" y="0" width="661.451" height="335.351" filterUnits="userSpaceOnUse" color-interpolation-filters="sRGB">
<feFlood flood-opacity="0" result="BackgroundImageFix"/>
<feColorMatrix in="SourceAlpha" type="matrix" values="0 0 0 0 0 0 0 0 0 0 0 0 0 0 0 0 0 0 127 0" result="hardAlpha"/>
<feOffset/>
<feGaussianBlur stdDeviation="2"/>
<feComposite in2="hardAlpha" operator="out"/>
<feColorMatrix type="matrix" values="0 0 0 0 0.996078 0 0 0 0 0.952941 0 0 0 0 0.780392 0 0 0 0.4 0"/>
<feBlend mode="normal" in2="BackgroundImageFix" result="effect1_dropShadow_399_179"/>
<feBlend mode="normal" in="SourceGraphic" in2="effect1_dropShadow_399_179" result="shape"/>
</filter>
<filter id="filter23_d_399_179" x="328.986" y="309.389" width="19.0508" height="20.835" filterUnits="userSpaceOnUse" color-interpolation-filters="sRGB">
<feFlood flood-opacity="0" result="BackgroundImageFix"/>
<feColorMatrix in="SourceAlpha" type="matrix" values="0 0 0 0 0 0 0 0 0 0 0 0 0 0 0 0 0 0 127 0" result="hardAlpha"/>
<feOffset/>
<feGaussianBlur stdDeviation="2"/>
<feComposite in2="hardAlpha" operator="out"/>
<feColorMatrix type="matrix" values="0 0 0 0 0.996078 0 0 0 0 0.952941 0 0 0 0 0.780392 0 0 0 0.4 0"/>
<feBlend mode="normal" in2="BackgroundImageFix" result="effect1_dropShadow_399_179"/>
<feBlend mode="normal" in="SourceGraphic" in2="effect1_dropShadow_399_179" result="shape"/>
</filter>
<filter id="filter24_d_399_179" x="318.26" y="302.376" width="20.7598" height="22.251" filterUnits="userSpaceOnUse" color-interpolation-filters="sRGB">
<feFlood flood-opacity="0" result="BackgroundImageFix"/>
<feColorMatrix in="SourceAlpha" type="matrix" values="0 0 0 0 0 0 0 0 0 0 0 0 0 0 0 0 0 0 127 0" result="hardAlpha"/>
<feOffset/>
<feGaussianBlur stdDeviation="2"/>
<feComposite in2="hardAlpha" operator="out"/>
<feColorMatrix type="matrix" values="0 0 0 0 0.996078 0 0 0 0 0.952941 0 0 0 0 0.780392 0 0 0 0.4 0"/>
<feBlend mode="normal" in2="BackgroundImageFix" result="effect1_dropShadow_399_179"/>
<feBlend mode="normal" in="SourceGraphic" in2="effect1_dropShadow_399_179" result="shape"/>
</filter>
<filter id="filter25_d_399_179" x="271.627" y="250.312" width="110.309" height="73.4697" filterUnits="userSpaceOnUse" color-interpolation-filters="sRGB">
<feFlood flood-opacity="0" result="BackgroundImageFix"/>
<feColorMatrix in="SourceAlpha" type="matrix" values="0 0 0 0 0 0 0 0 0 0 0 0 0 0 0 0 0 0 127 0" result="hardAlpha"/>
<feOffset/>
<feGaussianBlur stdDeviation="2"/>
<feComposite in2="hardAlpha" operator="out"/>
<feColorMatrix type="matrix" values="0 0 0 0 0.996078 0 0 0 0 0.952941 0 0 0 0 0.780392 0 0 0 0.4 0"/>
<feBlend mode="normal" in2="BackgroundImageFix" result="effect1_dropShadow_399_179"/>
<feBlend mode="normal" in="SourceGraphic" in2="effect1_dropShadow_399_179" result="shape"/>
</filter>
<filter id="filter26_d_399_179" x="308.844" y="296.747" width="21.0195" height="22.1738" filterUnits="userSpaceOnUse" color-interpolation-filters="sRGB">
<feFlood flood-opacity="0" result="BackgroundImageFix"/>
<feColorMatrix in="SourceAlpha" type="matrix" values="0 0 0 0 0 0 0 0 0 0 0 0 0 0 0 0 0 0 127 0" result="hardAlpha"/>
<feOffset/>
<feGaussianBlur stdDeviation="2"/>
<feComposite in2="hardAlpha" operator="out"/>
<feColorMatrix type="matrix" values="0 0 0 0 0.996078 0 0 0 0 0.952941 0 0 0 0 0.780392 0 0 0 0.4 0"/>
<feBlend mode="normal" in2="BackgroundImageFix" result="effect1_dropShadow_399_179"/>
<feBlend mode="normal" in="SourceGraphic" in2="effect1_dropShadow_399_179" result="shape"/>
</filter>
<filter id="filter27_d_399_179" x="500.668" y="276.489" width="75.584" height="41.5723" filterUnits="userSpaceOnUse" color-interpolation-filters="sRGB">
<feFlood flood-opacity="0" result="BackgroundImageFix"/>
<feColorMatrix in="SourceAlpha" type="matrix" values="0 0 0 0 0 0 0 0 0 0 0 0 0 0 0 0 0 0 127 0" result="hardAlpha"/>
<feOffset/>
<feGaussianBlur stdDeviation="2"/>
<feComposite in2="hardAlpha" operator="out"/>
<feColorMatrix type="matrix" values="0 0 0 0 0.996078 0 0 0 0 0.952941 0 0 0 0 0.780392 0 0 0 0.4 0"/>
<feBlend mode="normal" in2="BackgroundImageFix" result="effect1_dropShadow_399_179"/>
<feBlend mode="normal" in="SourceGraphic" in2="effect1_dropShadow_399_179" result="shape"/>
</filter>
<filter id="filter28_d_399_179" x="300.168" y="291.118" width="19.6074" height="19.8906" filterUnits="userSpaceOnUse" color-interpolation-filters="sRGB">
<feFlood flood-opacity="0" result="BackgroundImageFix"/>
<feColorMatrix in="SourceAlpha" type="matrix" values="0 0 0 0 0 0 0 0 0 0 0 0 0 0 0 0 0 0 127 0" result="hardAlpha"/>
<feOffset/>
<feGaussianBlur stdDeviation="2"/>
<feComposite in2="hardAlpha" operator="out"/>
<feColorMatrix type="matrix" values="0 0 0 0 0.996078 0 0 0 0 0.952941 0 0 0 0 0.780392 0 0 0 0.4 0"/>
<feBlend mode="normal" in2="BackgroundImageFix" result="effect1_dropShadow_399_179"/>
<feBlend mode="normal" in="SourceGraphic" in2="effect1_dropShadow_399_179" result="shape"/>
</filter>
<filter id="filter29_d_399_179" x="86.791" y="216.663" width="209.492" height="93.208" filterUnits="userSpaceOnUse" color-interpolation-filters="sRGB">
<feFlood flood-opacity="0" result="BackgroundImageFix"/>
<feColorMatrix in="SourceAlpha" type="matrix" values="0 0 0 0 0 0 0 0 0 0 0 0 0 0 0 0 0 0 127 0" result="hardAlpha"/>
<feOffset/>
<feGaussianBlur stdDeviation="2"/>
<feComposite in2="hardAlpha" operator="out"/>
<feColorMatrix type="matrix" values="0 0 0 0 0.996078 0 0 0 0 0.952941 0 0 0 0 0.780392 0 0 0 0.4 0"/>
<feBlend mode="normal" in2="BackgroundImageFix" result="effect1_dropShadow_399_179"/>
<feBlend mode="normal" in="SourceGraphic" in2="effect1_dropShadow_399_179" result="shape"/>
</filter>
<filter id="filter30_d_399_179" x="17.998" y="236.009" width="141.389" height="66.9375" filterUnits="userSpaceOnUse" color-interpolation-filters="sRGB">
<feFlood flood-opacity="0" result="BackgroundImageFix"/>
<feColorMatrix in="SourceAlpha" type="matrix" values="0 0 0 0 0 0 0 0 0 0 0 0 0 0 0 0 0 0 127 0" result="hardAlpha"/>
<feOffset/>
<feGaussianBlur stdDeviation="2"/>
<feComposite in2="hardAlpha" operator="out"/>
<feColorMatrix type="matrix" values="0 0 0 0 0.996078 0 0 0 0 0.952941 0 0 0 0 0.780392 0 0 0 0.4 0"/>
<feBlend mode="normal" in2="BackgroundImageFix" result="effect1_dropShadow_399_179"/>
<feBlend mode="normal" in="SourceGraphic" in2="effect1_dropShadow_399_179" result="shape"/>
</filter>
<filter id="filter31_d_399_179" x="319.326" y="248.754" width="74.6133" height="47.8535" filterUnits="userSpaceOnUse" color-interpolation-filters="sRGB">
<feFlood flood-opacity="0" result="BackgroundImageFix"/>
<feColorMatrix in="SourceAlpha" type="matrix" values="0 0 0 0 0 0 0 0 0 0 0 0 0 0 0 0 0 0 127 0" result="hardAlpha"/>
<feOffset/>
<feGaussianBlur stdDeviation="2"/>
<feComposite in2="hardAlpha" operator="out"/>
<feColorMatrix type="matrix" values="0 0 0 0 0.996078 0 0 0 0 0.952941 0 0 0 0 0.780392 0 0 0 0.4 0"/>
<feBlend mode="normal" in2="BackgroundImageFix" result="effect1_dropShadow_399_179"/>
<feBlend mode="normal" in="SourceGraphic" in2="effect1_dropShadow_399_179" result="shape"/>
</filter>
<filter id="filter32_d_399_179" x="15.3066" y="138.486" width="185.625" height="136.524" filterUnits="userSpaceOnUse" color-interpolation-filters="sRGB">
<feFlood flood-opacity="0" result="BackgroundImageFix"/>
<feColorMatrix in="SourceAlpha" type="matrix" values="0 0 0 0 0 0 0 0 0 0 0 0 0 0 0 0 0 0 127 0" result="hardAlpha"/>
<feOffset/>
<feGaussianBlur stdDeviation="2"/>
<feComposite in2="hardAlpha" operator="out"/>
<feColorMatrix type="matrix" values="0 0 0 0 0.996078 0 0 0 0 0.952941 0 0 0 0 0.780392 0 0 0 0.4 0"/>
<feBlend mode="normal" in2="BackgroundImageFix" result="effect1_dropShadow_399_179"/>
<feBlend mode="normal" in="SourceGraphic" in2="effect1_dropShadow_399_179" result="shape"/>
</filter>
<filter id="filter33_d_399_179" x="88.3555" y="37.1406" width="107.807" height="134.058" filterUnits="userSpaceOnUse" color-interpolation-filters="sRGB">
<feFlood flood-opacity="0" result="BackgroundImageFix"/>
<feColorMatrix in="SourceAlpha" type="matrix" values="0 0 0 0 0 0 0 0 0 0 0 0 0 0 0 0 0 0 127 0" result="hardAlpha"/>
<feOffset/>
<feGaussianBlur stdDeviation="2"/>
<feComposite in2="hardAlpha" operator="out"/>
<feColorMatrix type="matrix" values="0 0 0 0 0.996078 0 0 0 0 0.952941 0 0 0 0 0.780392 0 0 0 0.4 0"/>
<feBlend mode="normal" in2="BackgroundImageFix" result="effect1_dropShadow_399_179"/>
<feBlend mode="normal" in="SourceGraphic" in2="effect1_dropShadow_399_179" result="shape"/>
</filter>
<filter id="filter34_d_399_179" x="141.721" y="104.14" width="35.5781" height="22.2285" filterUnits="userSpaceOnUse" color-interpolation-filters="sRGB">
<feFlood flood-opacity="0" result="BackgroundImageFix"/>
<feColorMatrix in="SourceAlpha" type="matrix" values="0 0 0 0 0 0 0 0 0 0 0 0 0 0 0 0 0 0 127 0" result="hardAlpha"/>
<feOffset/>
<feGaussianBlur stdDeviation="2"/>
<feComposite in2="hardAlpha" operator="out"/>
<feColorMatrix type="matrix" values="0 0 0 0 0.996078 0 0 0 0 0.952941 0 0 0 0 0.780392 0 0 0 0.4 0"/>
<feBlend mode="normal" in2="BackgroundImageFix" result="effect1_dropShadow_399_179"/>
<feBlend mode="normal" in="SourceGraphic" in2="effect1_dropShadow_399_179" result="shape"/>
</filter>
<filter id="filter35_d_399_179" x="160.752" y="76.2881" width="26.8691" height="32.7129" filterUnits="userSpaceOnUse" color-interpolation-filters="sRGB">
<feFlood flood-opacity="0" result="BackgroundImageFix"/>
<feColorMatrix in="SourceAlpha" type="matrix" values="0 0 0 0 0 0 0 0 0 0 0 0 0 0 0 0 0 0 127 0" result="hardAlpha"/>
<feOffset/>
<feGaussianBlur stdDeviation="2"/>
<feComposite in2="hardAlpha" operator="out"/>
<feColorMatrix type="matrix" values="0 0 0 0 0.996078 0 0 0 0 0.952941 0 0 0 0 0.780392 0 0 0 0.4 0"/>
<feBlend mode="normal" in2="BackgroundImageFix" result="effect1_dropShadow_399_179"/>
<feBlend mode="normal" in="SourceGraphic" in2="effect1_dropShadow_399_179" result="shape"/>
</filter>
<filter id="filter36_d_399_179" x="176.016" y="69.21" width="15.7324" height="16.5703" filterUnits="userSpaceOnUse" color-interpolation-filters="sRGB">
<feFlood flood-opacity="0" result="BackgroundImageFix"/>
<feColorMatrix in="SourceAlpha" type="matrix" values="0 0 0 0 0 0 0 0 0 0 0 0 0 0 0 0 0 0 127 0" result="hardAlpha"/>
<feOffset/>
<feGaussianBlur stdDeviation="2"/>
<feComposite in2="hardAlpha" operator="out"/>
<feColorMatrix type="matrix" values="0 0 0 0 0.996078 0 0 0 0 0.952941 0 0 0 0 0.780392 0 0 0 0.4 0"/>
<feBlend mode="normal" in2="BackgroundImageFix" result="effect1_dropShadow_399_179"/>
<feBlend mode="normal" in="SourceGraphic" in2="effect1_dropShadow_399_179" result="shape"/>
</filter>
<filter id="filter37_d_399_179" x="149.08" y="68.3984" width="15.5684" height="15.7842" filterUnits="userSpaceOnUse" color-interpolation-filters="sRGB">
<feFlood flood-opacity="0" result="BackgroundImageFix"/>
<feColorMatrix in="SourceAlpha" type="matrix" values="0 0 0 0 0 0 0 0 0 0 0 0 0 0 0 0 0 0 127 0" result="hardAlpha"/>
<feOffset/>
<feGaussianBlur stdDeviation="2"/>
<feComposite in2="hardAlpha" operator="out"/>
<feColorMatrix type="matrix" values="0 0 0 0 0.996078 0 0 0 0 0.952941 0 0 0 0 0.780392 0 0 0 0.4 0"/>
<feBlend mode="normal" in2="BackgroundImageFix" result="effect1_dropShadow_399_179"/>
<feBlend mode="normal" in="SourceGraphic" in2="effect1_dropShadow_399_179" result="shape"/>
</filter>
<filter id="filter38_d_399_179" x="480.305" y="30.9131" width="99.9922" height="136.311" filterUnits="userSpaceOnUse" color-interpolation-filters="sRGB">
<feFlood flood-opacity="0" result="BackgroundImageFix"/>
<feColorMatrix in="SourceAlpha" type="matrix" values="0 0 0 0 0 0 0 0 0 0 0 0 0 0 0 0 0 0 127 0" result="hardAlpha"/>
<feOffset/>
<feGaussianBlur stdDeviation="2"/>
<feComposite in2="hardAlpha" operator="out"/>
<feColorMatrix type="matrix" values="0 0 0 0 0.996078 0 0 0 0 0.952941 0 0 0 0 0.780392 0 0 0 0.4 0"/>
<feBlend mode="normal" in2="BackgroundImageFix" result="effect1_dropShadow_399_179"/>
<feBlend mode="normal" in="SourceGraphic" in2="effect1_dropShadow_399_179" result="shape"/>
</filter>
<filter id="filter39_d_399_179" x="500.129" y="97.3105" width="37.377" height="22.7617" filterUnits="userSpaceOnUse" color-interpolation-filters="sRGB">
<feFlood flood-opacity="0" result="BackgroundImageFix"/>
<feColorMatrix in="SourceAlpha" type="matrix" values="0 0 0 0 0 0 0 0 0 0 0 0 0 0 0 0 0 0 127 0" result="hardAlpha"/>
<feOffset/>
<feGaussianBlur stdDeviation="2"/>
<feComposite in2="hardAlpha" operator="out"/>
<feColorMatrix type="matrix" values="0 0 0 0 0.996078 0 0 0 0 0.952941 0 0 0 0 0.780392 0 0 0 0.4 0"/>
<feBlend mode="normal" in2="BackgroundImageFix" result="effect1_dropShadow_399_179"/>
<feBlend mode="normal" in="SourceGraphic" in2="effect1_dropShadow_399_179" result="shape"/>
</filter>
<filter id="filter40_d_399_179" x="491.279" y="63.54" width="25.6309" height="39.7529" filterUnits="userSpaceOnUse" color-interpolation-filters="sRGB">
<feFlood flood-opacity="0" result="BackgroundImageFix"/>
<feColorMatrix in="SourceAlpha" type="matrix" values="0 0 0 0 0 0 0 0 0 0 0 0 0 0 0 0 0 0 127 0" result="hardAlpha"/>
<feOffset/>
<feGaussianBlur stdDeviation="2"/>
<feComposite in2="hardAlpha" operator="out"/>
<feColorMatrix type="matrix" values="0 0 0 0 0.996078 0 0 0 0 0.952941 0 0 0 0 0.780392 0 0 0 0.4 0"/>
<feBlend mode="normal" in2="BackgroundImageFix" result="effect1_dropShadow_399_179"/>
<feBlend mode="normal" in="SourceGraphic" in2="effect1_dropShadow_399_179" result="shape"/>
</filter>
<filter id="filter41_d_399_179" x="484.445" y="62.6035" width="15.6094" height="16.6934" filterUnits="userSpaceOnUse" color-interpolation-filters="sRGB">
<feFlood flood-opacity="0" result="BackgroundImageFix"/>
<feColorMatrix in="SourceAlpha" type="matrix" values="0 0 0 0 0 0 0 0 0 0 0 0 0 0 0 0 0 0 127 0" result="hardAlpha"/>
<feOffset/>
<feGaussianBlur stdDeviation="2"/>
<feComposite in2="hardAlpha" operator="out"/>
<feColorMatrix type="matrix" values="0 0 0 0 0.996078 0 0 0 0 0.952941 0 0 0 0 0.780392 0 0 0 0.4 0"/>
<feBlend mode="normal" in2="BackgroundImageFix" result="effect1_dropShadow_399_179"/>
<feBlend mode="normal" in="SourceGraphic" in2="effect1_dropShadow_399_179" result="shape"/>
</filter>
<filter id="filter42_d_399_179" x="513.242" y="61.4336" width="16.0332" height="16.21" filterUnits="userSpaceOnUse" color-interpolation-filters="sRGB">
<feFlood flood-opacity="0" result="BackgroundImageFix"/>
<feColorMatrix in="SourceAlpha" type="matrix" values="0 0 0 0 0 0 0 0 0 0 0 0 0 0 0 0 0 0 127 0" result="hardAlpha"/>
<feOffset/>
<feGaussianBlur stdDeviation="2"/>
<feComposite in2="hardAlpha" operator="out"/>
<feColorMatrix type="matrix" values="0 0 0 0 0.996078 0 0 0 0 0.952941 0 0 0 0 0.780392 0 0 0 0.4 0"/>
<feBlend mode="normal" in2="BackgroundImageFix" result="effect1_dropShadow_399_179"/>
<feBlend mode="normal" in="SourceGraphic" in2="effect1_dropShadow_399_179" result="shape"/>
</filter>
<filter id="filter43_d_399_179" x="266.072" y="73.627" width="137.863" height="107.993" filterUnits="userSpaceOnUse" color-interpolation-filters="sRGB">
<feFlood flood-opacity="0" result="BackgroundImageFix"/>
<feColorMatrix in="SourceAlpha" type="matrix" values="0 0 0 0 0 0 0 0 0 0 0 0 0 0 0 0 0 0 127 0" result="hardAlpha"/>
<feOffset/>
<feGaussianBlur stdDeviation="2"/>
<feComposite in2="hardAlpha" operator="out"/>
<feColorMatrix type="matrix" values="0 0 0 0 0.752941 0 0 0 0 0.14902 0 0 0 0 0.827451 0 0 0 0.5 0"/>
<feBlend mode="normal" in2="BackgroundImageFix" result="effect1_dropShadow_399_179"/>
<feBlend mode="normal" in="SourceGraphic" in2="effect1_dropShadow_399_179" result="shape"/>
</filter>
<filter id="filter44_d_399_179" x="271.094" y="79.3779" width="127.531" height="96.6631" filterUnits="userSpaceOnUse" color-interpolation-filters="sRGB">
<feFlood flood-opacity="0" result="BackgroundImageFix"/>
<feColorMatrix in="SourceAlpha" type="matrix" values="0 0 0 0 0 0 0 0 0 0 0 0 0 0 0 0 0 0 127 0" result="hardAlpha"/>
<feOffset/>
<feGaussianBlur stdDeviation="2"/>
<feComposite in2="hardAlpha" operator="out"/>
<feColorMatrix type="matrix" values="0 0 0 0 0.752941 0 0 0 0 0.14902 0 0 0 0 0.827451 0 0 0 0.5 0"/>
<feBlend mode="normal" in2="BackgroundImageFix" result="effect1_dropShadow_399_179"/>
<feBlend mode="normal" in="SourceGraphic" in2="effect1_dropShadow_399_179" result="shape"/>
</filter>
<filter id="filter45_d_399_179" x="322.139" y="95.7529" width="28.4902" height="61.8545" filterUnits="userSpaceOnUse" color-interpolation-filters="sRGB">
<feFlood flood-opacity="0" result="BackgroundImageFix"/>
<feColorMatrix in="SourceAlpha" type="matrix" values="0 0 0 0 0 0 0 0 0 0 0 0 0 0 0 0 0 0 127 0" result="hardAlpha"/>
<feOffset/>
<feGaussianBlur stdDeviation="2"/>
<feComposite in2="hardAlpha" operator="out"/>
<feColorMatrix type="matrix" values="0 0 0 0 0.752941 0 0 0 0 0.14902 0 0 0 0 0.827451 0 0 0 0.5 0"/>
<feBlend mode="normal" in2="BackgroundImageFix" result="effect1_dropShadow_399_179"/>
<feBlend mode="normal" in="SourceGraphic" in2="effect1_dropShadow_399_179" result="shape"/>
</filter>
<filter id="filter46_d_399_179" x="352.143" y="102.049" width="29.4375" height="49.1377" filterUnits="userSpaceOnUse" color-interpolation-filters="sRGB">
<feFlood flood-opacity="0" result="BackgroundImageFix"/>
<feColorMatrix in="SourceAlpha" type="matrix" values="0 0 0 0 0 0 0 0 0 0 0 0 0 0 0 0 0 0 127 0" result="hardAlpha"/>
<feOffset/>
<feGaussianBlur stdDeviation="2"/>
<feComposite in2="hardAlpha" operator="out"/>
<feColorMatrix type="matrix" values="0 0 0 0 0.752941 0 0 0 0 0.14902 0 0 0 0 0.827451 0 0 0 0.5 0"/>
<feBlend mode="normal" in2="BackgroundImageFix" result="effect1_dropShadow_399_179"/>
<feBlend mode="normal" in="SourceGraphic" in2="effect1_dropShadow_399_179" result="shape"/>
</filter>
<filter id="filter47_d_399_179" x="290.59" y="101.743" width="31.8379" height="48.7373" filterUnits="userSpaceOnUse" color-interpolation-filters="sRGB">
<feFlood flood-opacity="0" result="BackgroundImageFix"/>
<feColorMatrix in="SourceAlpha" type="matrix" values="0 0 0 0 0 0 0 0 0 0 0 0 0 0 0 0 0 0 127 0" result="hardAlpha"/>
<feOffset/>
<feGaussianBlur stdDeviation="2"/>
<feComposite in2="hardAlpha" operator="out"/>
<feColorMatrix type="matrix" values="0 0 0 0 0.752941 0 0 0 0 0.14902 0 0 0 0 0.827451 0 0 0 0.5 0"/>
<feBlend mode="normal" in2="BackgroundImageFix" result="effect1_dropShadow_399_179"/>
<feBlend mode="normal" in="SourceGraphic" in2="effect1_dropShadow_399_179" result="shape"/>
</filter>
<filter id="filter48_d_399_179" x="249.451" y="26.4121" width="163.406" height="16.8818" filterUnits="userSpaceOnUse" color-interpolation-filters="sRGB">
<feFlood flood-opacity="0" result="BackgroundImageFix"/>
<feColorMatrix in="SourceAlpha" type="matrix" values="0 0 0 0 0 0 0 0 0 0 0 0 0 0 0 0 0 0 127 0" result="hardAlpha"/>
<feOffset/>
<feGaussianBlur stdDeviation="2"/>
<feComposite in2="hardAlpha" operator="out"/>
<feColorMatrix type="matrix" values="0 0 0 0 0.752941 0 0 0 0 0.14902 0 0 0 0 0.827451 0 0 0 0.5 0"/>
<feBlend mode="normal" in2="BackgroundImageFix" result="effect1_dropShadow_399_179"/>
<feBlend mode="normal" in="SourceGraphic" in2="effect1_dropShadow_399_179" result="shape"/>
</filter>
</defs>
</svg>
